<?xml version="1.0" encoding="UTF-8"?>
<svg xmlns="http://www.w3.org/2000/svg" width="360" height="360" viewBox="0 0 360 360" fill="none">
  <g clip-path="url(#clip0_243_1340)">
    <path d="M355.478 37.4084C360.576 50.2165 360.714 66.5638 356.537 85.1986C352.362 103.827 343.884 124.698 331.807 146.518C307.653 190.16 269.131 237.546 221.966 278.32C174.796 319.097 127.953 345.504 90.3694 355.264C71.5762 360.145 55.1387 360.853 42.1437 357.154C29.1709 353.462 19.6098 345.375 14.5219 332.592C9.42421 319.784 9.2862 303.436 13.4629 284.801C17.6382 266.173 26.1157 245.302 38.193 223.482C62.3473 179.84 100.869 132.454 148.035 91.6804C195.204 50.9031 242.047 24.4963 279.631 14.7358C298.424 9.85519 314.861 9.14726 327.856 12.846C340.829 16.5384 350.39 24.6252 355.478 37.4084Z" stroke="#FBFBFB"></path>
    <path d="M345.478 27.4084C350.576 40.2165 350.714 56.5638 346.537 75.1986C342.362 93.8271 333.884 114.698 321.807 136.518C297.653 180.16 259.131 227.546 211.966 268.32C164.796 309.097 117.953 335.504 80.3694 345.264C61.5762 350.145 45.1387 350.853 32.1437 347.154C19.1709 343.462 9.60977 335.375 4.52195 322.592C-0.575791 309.784 -0.713798 293.436 3.46288 274.801C7.63816 256.173 16.1157 235.302 28.193 213.482C52.3473 169.84 90.8694 122.454 138.035 81.6804C185.204 40.9031 232.047 14.4963 269.631 4.7358C288.424 -0.144805 304.861 -0.852742 317.856 2.84597C330.829 6.53835 340.39 14.6252 345.478 27.4084Z" fill="#7900FF" stroke="#FBFBFB"></path>
  </g>
  <defs>
    <clipPath id="clip0_243_1340">
      <rect width="360" height="360" fill="white"></rect>
    </clipPath>
  </defs>
</svg>
