<svg width="237" height="30" viewBox="0 0 237 30" fill="none" xmlns="http://www.w3.org/2000/svg">
<path d="M12.6 28.9C10.94 28.9 9.38 28.59 7.92 27.97C6.48 27.35 5.21 26.52 4.11 25.48C3.03 24.42 2.17 23.2 1.53 21.82C0.91 20.44 0.6 19 0.6 17.5C0.6 16 0.91 14.57 1.53 13.21C2.17 11.83 3.03 10.62 4.11 9.58C5.21 8.52 6.48 7.68 7.92 7.06C9.38 6.42 10.94 6.1 12.6 6.1C14.02 6.1 15.31 6.31 16.47 6.73C17.63 7.15 18.65 7.71 19.53 8.41C20.41 9.09 21.15 9.88 21.75 10.78C22.35 11.68 22.8 12.62 23.1 13.6L16.2 14.5C15.98 14.2 15.75 13.92 15.51 13.66C15.27 13.4 15 13.18 14.7 13C14.4 12.82 14.05 12.68 13.65 12.58C13.27 12.46 12.82 12.4 12.3 12.4C11.7 12.4 11.11 12.54 10.53 12.82C9.95 13.1 9.43 13.48 8.97 13.96C8.53 14.42 8.17 14.96 7.89 15.58C7.63 16.18 7.5 16.82 7.5 17.5C7.5 18.18 7.63 18.83 7.89 19.45C8.17 20.05 8.53 20.59 8.97 21.07C9.43 21.53 9.95 21.9 10.53 22.18C11.11 22.46 11.7 22.6 12.3 22.6C12.76 22.6 13.16 22.56 13.5 22.48C13.86 22.38 14.18 22.27 14.46 22.15C14.76 22.03 15.04 21.88 15.3 21.7V21.4H12V16.3H23.7V18.1C23.7 19.46 23.4 20.79 22.8 22.09C22.22 23.37 21.42 24.52 20.4 25.54C19.38 26.54 18.2 27.35 16.86 27.97C15.52 28.59 14.1 28.9 12.6 28.9ZM38.6871 7H45.5871V19.6C45.5871 20.96 45.3471 22.21 44.8671 23.35C44.4071 24.47 43.7471 25.45 42.8871 26.29C42.0271 27.11 40.9871 27.75 39.7671 28.21C38.5471 28.67 37.1871 28.9 35.6871 28.9C34.1871 28.9 32.8271 28.67 31.6071 28.21C30.3871 27.75 29.3471 27.11 28.4871 26.29C27.6271 25.45 26.9571 24.47 26.4771 23.35C26.0171 22.21 25.7871 20.96 25.7871 19.6V7H32.6871V19.6C32.6871 20.5 32.9571 21.23 33.4971 21.79C34.0571 22.33 34.7871 22.6 35.6871 22.6C36.5871 22.6 37.3071 22.33 37.8471 21.79C38.4071 21.23 38.6871 20.5 38.6871 19.6V7ZM59.6801 21.1C59.6801 20.8 59.4001 20.57 58.8401 20.41C58.2801 20.23 57.5701 20.05 56.7101 19.87C55.8701 19.69 54.9601 19.47 53.9801 19.21C53.0001 18.93 52.0801 18.54 51.2201 18.04C50.3801 17.54 49.6801 16.89 49.1201 16.09C48.5601 15.29 48.2801 14.26 48.2801 13C48.2801 12.1 48.4801 11.24 48.8801 10.42C49.2801 9.58 49.8601 8.84 50.6201 8.2C51.4001 7.56 52.3501 7.05 53.4701 6.67C54.5901 6.29 55.8601 6.1 57.2801 6.1C58.5601 6.1 59.7201 6.29 60.7601 6.67C61.8001 7.05 62.7101 7.57 63.4901 8.23C64.2901 8.89 64.9501 9.66 65.4701 10.54C65.9901 11.4 66.3601 12.32 66.5801 13.3L59.6801 14.2C59.3801 13.6 59.0401 13.15 58.6601 12.85C58.3001 12.55 57.7401 12.4 56.9801 12.4C56.4601 12.4 56.0801 12.5 55.8401 12.7C55.6001 12.88 55.4801 13.08 55.4801 13.3C55.4801 13.6 55.7601 13.84 56.3201 14.02C56.8801 14.18 57.5801 14.35 58.4201 14.53C59.2801 14.71 60.2001 14.94 61.1801 15.22C62.1601 15.48 63.0701 15.86 63.9101 16.36C64.7701 16.86 65.4801 17.52 66.0401 18.34C66.6001 19.14 66.8801 20.16 66.8801 21.4C66.8801 22.38 66.6601 23.32 66.2201 24.22C65.7801 25.12 65.1501 25.92 64.3301 26.62C63.5101 27.3 62.5001 27.85 61.3001 28.27C60.1201 28.69 58.7801 28.9 57.2801 28.9C55.8601 28.9 54.5801 28.7 53.4401 28.3C52.3201 27.92 51.3401 27.39 50.5001 26.71C49.6601 26.01 48.9501 25.18 48.3701 24.22C47.8101 23.26 47.3801 22.22 47.0801 21.1L53.9801 20.2C54.2801 20.96 54.6901 21.55 55.2101 21.97C55.7301 22.39 56.5201 22.6 57.5801 22.6C58.2601 22.6 58.7801 22.45 59.1401 22.15C59.5001 21.83 59.6801 21.48 59.6801 21.1ZM89.6777 28H82.7777L82.0277 24.7H74.8277L74.0777 28H67.1777L72.2777 7H84.5777L89.6777 28ZM79.3277 13.3H77.5277L76.3277 18.4H80.5277L79.3277 13.3ZM111.278 28H103.928L101.078 22.3H98.0777V28H91.1777V7H102.278C103.618 7 104.828 7.2 105.908 7.6C106.988 7.98 107.898 8.52 108.638 9.22C109.398 9.9 109.978 10.72 110.378 11.68C110.778 12.64 110.978 13.68 110.978 14.8C110.978 15.94 110.788 16.89 110.408 17.65C110.048 18.41 109.638 19.02 109.178 19.48C108.658 20.02 108.058 20.46 107.378 20.8L111.278 28ZM98.0777 13V16.6H102.278C102.738 16.6 103.148 16.42 103.508 16.06C103.888 15.68 104.078 15.26 104.078 14.8C104.078 14.34 103.888 13.93 103.508 13.57C103.148 13.19 102.738 13 102.278 13H98.0777ZM156.914 7H163.814L158.714 28H147.014L141.914 7H148.814L152.264 21.7H153.464L156.914 7Z" fill="#2E2D2F"/>
<path d="M187.384 25.15V28H171.934V7H187.384V9.85H175.084V16H184.834V18.85H175.084V25.15H187.384ZM204.375 20.59C204.755 19.65 204.945 18.62 204.945 17.5C204.945 16.38 204.755 15.35 204.375 14.41C203.995 13.47 203.455 12.67 202.755 12.01C202.075 11.33 201.245 10.8 200.265 10.42C199.285 10.04 198.195 9.85 196.995 9.85H193.395V25.15H196.995C198.195 25.15 199.285 24.97 200.265 24.61C201.245 24.23 202.075 23.7 202.755 23.02C203.455 22.34 203.995 21.53 204.375 20.59ZM207.285 13.33C207.825 14.61 208.095 16 208.095 17.5C208.095 19 207.825 20.39 207.285 21.67C206.745 22.95 205.985 24.06 205.005 25C204.045 25.94 202.875 26.68 201.495 27.22C200.135 27.74 198.635 28 196.995 28H190.245V7H196.995C198.635 7 200.135 7.27 201.495 7.81C202.875 8.33 204.045 9.06 205.005 10C205.985 10.94 206.745 12.05 207.285 13.33ZM217.64 25.66C218.3 25.92 219.02 26.05 219.8 26.05C220.58 26.05 221.3 25.92 221.96 25.66C222.62 25.38 223.19 24.99 223.67 24.49C224.15 23.97 224.52 23.35 224.78 22.63C225.06 21.91 225.2 21.1 225.2 20.2V7H228.35V20.2C228.35 21.52 228.14 22.72 227.72 23.8C227.32 24.86 226.74 25.77 225.98 26.53C225.24 27.29 224.34 27.87 223.28 28.27C222.24 28.69 221.08 28.9 219.8 28.9C218.52 28.9 217.35 28.69 216.29 28.27C215.25 27.87 214.35 27.29 213.59 26.53C212.85 25.77 212.27 24.86 211.85 23.8C211.45 22.72 211.25 21.52 211.25 20.2V7H214.4V20.2C214.4 21.1 214.53 21.91 214.79 22.63C215.07 23.35 215.45 23.97 215.93 24.49C216.41 24.99 216.98 25.38 217.64 25.66ZM232.159 27.94C231.819 27.6 231.649 27.17 231.649 26.65C231.649 26.13 231.819 25.7 232.159 25.36C232.499 25.02 232.929 24.85 233.449 24.85C233.969 24.85 234.399 25.02 234.739 25.36C235.079 25.7 235.249 26.13 235.249 26.65C235.249 27.17 235.079 27.6 234.739 27.94C234.399 28.28 233.969 28.45 233.449 28.45C232.929 28.45 232.499 28.28 232.159 27.94Z" fill="#7900FF"/>
<path d="M131.613 21.49C129.622 23.6827 128.638 26.2958 129.599 27.4822C130.568 28.6789 132.965 28.3847 134.952 26.8251C135.946 26.0453 137.262 25.0507 137.596 24.1475C137.93 23.2444 137.281 22.4327 136.796 21.8343C136.199 21.0967 135.883 18.9123 134.695 18.951C133.956 18.975 131.628 21.4739 131.613 21.49Z" fill="#548CFF"/>
<path d="M139.808 16.8247L139.804 16.8252C139.886 14.3459 138.584 10.8829 135.969 9.0065C133.929 7.54241 130.041 6.41506 128.006 8.29369C126.859 9.35208 126.603 11.0906 126.79 12.3301C127.084 14.2758 128.542 15.499 128.827 15.7374C129.314 16.1455 129.655 16.2854 131.303 17.5153C131.756 17.8532 132.05 18.0649 132.273 18.2532C133.161 19.0011 134.565 20.1558 135.257 22.0566C135.954 23.9735 135.691 25.6459 135.531 26.3714C136.315 25.8127 137.851 24.5595 138.915 22.3996C139.942 20.3168 139.833 17.7727 139.808 16.8247Z" fill="#7900FF"/>
<path d="M122.485 14.1095C124.476 11.9168 125.46 9.30369 124.5 8.11729C123.53 6.92058 121.134 7.21479 119.146 8.77442C118.152 9.55424 116.836 10.5489 116.502 11.452C116.168 12.3552 116.818 13.1669 117.302 13.7652C117.899 14.5028 118.215 16.6872 119.403 16.6485C120.142 16.6245 122.47 14.1256 122.485 14.1095Z" fill="#548CFF"/>
<path d="M114.29 18.7748L114.294 18.7742C114.213 21.2535 115.514 24.7165 118.129 26.593C120.17 28.0571 124.057 29.1844 126.092 27.3058C127.239 26.2474 127.495 24.5089 127.308 23.2693C127.015 21.3237 125.556 20.1004 125.272 19.8621C124.784 19.4539 124.443 19.314 122.795 18.0842C122.343 17.7463 122.048 17.5346 121.825 17.3462C120.937 16.5983 119.533 15.4436 118.842 13.5429C118.144 11.6259 118.407 9.95356 118.567 9.22803C117.784 9.7868 116.247 11.04 115.183 13.1999C114.157 15.2827 114.265 17.8267 114.29 18.7748Z" fill="#7900FF"/>
<path d="M126.18 7.81073C126.78 7.81526 127.149 6.85346 128.4 5.85233C129.319 5.11644 130.525 4.71143 130.846 4.56865C131.487 4.28363 132.151 3.99846 132.641 3.50124C132.8 3.33887 132.945 3.1414 132.958 2.91569C132.982 2.50644 132.588 2.2041 132.227 2.00009C131.489 1.58345 130.705 1.24595 129.894 0.99548C129.392 0.840776 128.874 0.718434 128.349 0.722127C127.001 0.731603 125.711 1.6634 125.297 2.92627C125.098 3.53336 125.09 4.18298 125.095 4.82081C125.1 5.38064 125.113 5.89213 125.227 6.4245C125.409 7.27752 125.974 7.80918 126.18 7.81073Z" fill="#A4FF5C"/>
</svg>
