<svg width="456" height="129" viewBox="0 0 456 129" fill="none" xmlns="http://www.w3.org/2000/svg">
<g clip-path="url(#clip0_1885_6889)">
<path d="M454.634 24.8258L6.75494 1.35352L3.50473 63.3713L451.383 86.8436L454.634 24.8258Z" fill="white"/>
<path d="M451.859 87.3586L2.97756 63.8337L6.28113 0.797852L455.163 24.3227L451.859 87.3586ZM4.034 62.8682L450.91 86.288L454.106 25.2882L7.23086 1.86844L4.034 62.8682Z" fill="#575658"/>
<path d="M454.635 24.8051L393.527 21.6025L390.276 83.6203L451.384 86.8229L454.635 24.8051Z" fill="#7900FF"/>
<path d="M440.914 72.6161L435.039 76.6569L425.322 62.0808L421.767 56.7904C422.568 56.5225 423.326 56.1394 424.019 55.6529C425.35 54.7261 426.418 53.4623 427.118 51.9872L430.896 57.6364L440.914 72.6161Z" fill="white"/>
<path d="M431.509 39.0388C429.846 36.5775 427.524 34.6512 424.816 33.4869C422.108 32.3225 419.128 31.9688 416.226 32.4674C413.323 32.9659 410.621 34.296 408.437 36.3008C406.253 38.3056 404.679 40.9014 403.9 43.7821C403.121 46.6629 403.169 49.7084 404.039 52.5595C404.91 55.4107 406.566 57.9486 408.812 59.8739C411.058 61.7992 413.801 63.0316 416.718 63.4258C419.634 63.82 422.602 63.3596 425.271 62.0988C427.443 61.0568 429.351 59.5222 430.847 57.6136C432.898 54.9921 434.068 51.7744 434.187 48.4319C434.306 45.0893 433.368 41.7976 431.509 39.0388ZM424.001 55.6317C423.307 56.1182 422.549 56.5013 421.748 56.7692C419.55 57.5187 417.155 57.3942 415.046 56.4208C412.937 55.4473 411.272 53.6975 410.388 51.5248C409.503 49.352 409.464 46.9182 410.279 44.7149C411.094 42.5116 412.702 40.7029 414.779 39.6542C416.855 38.6055 419.245 38.3949 421.466 39.0649C423.687 39.7349 425.573 41.2357 426.744 43.264C427.915 45.2924 428.282 47.6972 427.773 49.9927C427.264 52.2883 425.916 54.3037 424.001 55.6317Z" fill="white"/>
<path d="M302.038 29.0381L298.758 28.8662L296.785 66.5024L300.065 66.6743L302.038 29.0381Z" fill="#2E2D2F"/>
<path d="M38.2041 42.8371L34.3764 42.6365L28.7778 34.3073L28.3578 42.3211L25.0356 42.147L25.9319 25.0443L29.2542 25.2184L28.8585 32.768L35.0319 25.5212L38.8597 25.7218L32.1892 33.7021L38.2041 42.8371Z" fill="#999999"/>
<path d="M52.3071 43.5762L51.4573 40.4448L44.7406 40.0928L43.5682 43.1183L39.9811 42.9303L46.7756 26.1366L50.8923 26.3524L55.9182 43.7655L52.3071 43.5762ZM45.965 36.9965L50.5873 37.2387L48.6424 30.1299L45.965 36.9965Z" fill="#999999"/>
<path d="M71.9267 44.6045L68.0989 44.4039L62.5004 36.0746L62.0804 44.0884L58.7582 43.9143L59.6545 26.8116L62.9767 26.9857L62.581 34.5353L68.7545 27.2885L72.5823 27.4891L65.9117 35.4694L71.9267 44.6045Z" fill="#999999"/>
<path d="M92.4731 28.5315L95.7713 28.7044L94.875 45.8071L91.5768 45.6343L91.9481 38.5489L85.6889 38.2208L85.3175 45.3062L81.9953 45.1321L82.8916 28.0294L86.2139 28.2035L85.8579 34.9957L92.1172 35.3238L92.4731 28.5315Z" fill="#999999"/>
<path d="M110.043 46.602L109.193 43.4705L102.476 43.1185L101.304 46.144L97.7167 45.9561L104.511 29.1624L108.628 29.3782L113.654 46.7913L110.043 46.602ZM103.701 40.0223L108.323 40.2645L106.378 33.1557L103.701 40.0223Z" fill="#999999"/>
<path d="M120.505 28.4327L120.649 25.6962L127.63 26.0621L127.487 28.7985L120.505 28.4327ZM126.244 47.4511L126.79 37.0184L119.021 47.0726L116.494 46.9401L117.39 29.8374L120.712 30.0115L120.164 40.4686L127.934 30.39L130.462 30.5225L129.566 47.6252L126.244 47.4511Z" fill="#999999"/>
<path d="M145.938 31.3335L145.769 34.5586L141.219 34.3202L140.492 48.1978L137.17 48.0237L137.897 34.1461L133.371 33.9089L133.54 30.6838L145.938 31.3335Z" fill="#999999"/>
<path d="M157.85 49.1075L158.397 38.6749L150.628 48.729L148.1 48.5966L148.997 31.4938L152.319 31.6679L151.771 42.125L159.541 32.0464L162.069 32.1789L161.173 49.2816L157.85 49.1075Z" fill="#999999"/>
<path d="M185.893 50.5772L182.065 50.3766L176.467 42.0473L176.047 50.0612L172.725 49.8871L173.621 32.7843L176.943 32.9584L176.547 40.5081L182.721 33.2612L186.549 33.4618L179.878 41.4421L185.893 50.5772Z" fill="#999999"/>
<path d="M187.628 50.6681L187.791 47.5407C188.779 47.7395 189.536 47.575 190.062 47.0473C190.589 46.5195 190.894 45.4494 190.979 43.8368L191.509 33.7218L202.968 34.3223L202.072 51.4251L198.774 51.2522L199.501 37.3746L194.638 37.1197L194.282 43.912C194.205 45.3942 193.963 46.631 193.557 47.6224C193.151 48.6137 192.622 49.3374 191.97 49.7932C191.335 50.2499 190.66 50.5412 189.945 50.667C189.246 50.7938 188.474 50.7941 187.628 50.6681Z" fill="#999999"/>
<path d="M216.15 52.1629L216.697 41.7302L208.928 51.7844L206.4 51.6519L207.296 34.5492L210.619 34.7233L210.071 45.1804L217.841 35.1018L220.369 35.2343L219.472 52.337L216.15 52.1629Z" fill="#999999"/>
<path d="M227.293 49.5129L234.395 49.8851L234.226 53.1102L223.802 52.5639L224.698 35.4612L235.002 36.0012L234.833 39.2263L227.852 38.8604L227.661 42.5008L234.041 42.8352L233.874 46.0114L227.494 45.677L227.293 49.5129Z" fill="#999999"/>
<path d="M248.25 36.6954L251.548 36.8683L250.651 53.971L247.353 53.7982L247.725 46.7128L241.465 46.3847L241.094 53.4701L237.772 53.296L238.668 36.1933L241.99 36.3674L241.634 43.1596L247.894 43.4877L248.25 36.6954Z" fill="#999999"/>
<path d="M267.028 37.6796L266.859 40.9047L262.309 40.6662L261.582 54.5439L258.26 54.3698L258.987 40.4921L254.461 40.2549L254.63 37.0298L267.028 37.6796Z" fill="#999999"/>
<path d="M278.801 55.4463L277.951 52.3148L271.235 51.9628L270.062 54.9883L266.475 54.8003L273.27 38.0067L277.386 38.2224L282.412 55.6355L278.801 55.4463ZM272.459 48.8665L277.081 49.1088L275.136 41.9999L272.459 48.8665Z" fill="#999999"/>
<path d="M286.967 50.1168C287.004 49.4001 287.249 48.727 287.7 48.0973C288.167 47.4685 288.66 46.9716 289.178 46.6068C289.697 46.2257 290.179 45.7773 290.625 45.2616C291.086 44.7468 291.331 44.2207 291.359 43.6831C291.389 43.113 291.22 42.6632 290.851 42.3335C290.482 42.0038 289.952 41.8209 289.262 41.7848C287.914 41.7141 286.921 42.3889 286.283 43.8091L283.53 41.9988C284.074 40.8187 284.885 39.9302 285.963 39.3334C287.057 38.7211 288.254 38.449 289.554 38.5171C291.014 38.5937 292.252 39.0913 293.266 40.0101C294.297 40.9135 294.773 42.1144 294.694 43.6129C294.658 44.297 294.481 44.9247 294.161 45.496C293.858 46.068 293.494 46.5553 293.071 46.9578C292.664 47.3448 292.25 47.7151 291.829 48.0687C291.426 48.4069 291.069 48.7638 290.759 49.1396C290.466 49.5162 290.309 49.9 290.289 50.2909L286.967 50.1168ZM289.787 55.728C289.364 56.1142 288.872 56.2926 288.31 56.2631C287.748 56.2337 287.278 56.0049 286.898 55.5766C286.518 55.1484 286.343 54.6492 286.373 54.0791C286.403 53.509 286.629 53.0309 287.051 52.6447C287.474 52.2585 287.966 52.0802 288.528 52.1096C289.09 52.139 289.56 52.3679 289.94 52.7961C290.32 53.2244 290.495 53.7235 290.465 54.2936C290.435 54.8637 290.209 55.3418 289.787 55.728Z" fill="#999999"/>
<path d="M234.008 99.5535L239.49 115.296L233.073 117.604L227.566 101.758L216.766 109.379L219.041 65.9805L247.364 98.2425L234.008 99.5535Z" fill="#548CFF"/>
<path d="M219.704 60.2264C219.406 59.2891 219.287 58.3023 219.354 57.3191C219.386 56.3371 219.608 55.3708 220.006 54.4746C220.313 55.4063 220.433 56.3916 220.357 57.3717C220.326 58.3572 220.104 59.3271 219.704 60.2264Z" fill="#548CFF"/>
<path d="M214.712 62.0265C213.848 61.5797 213.077 60.9674 212.442 60.2232C211.775 59.5085 211.255 58.6657 210.913 57.7441C212.639 58.6698 213.985 60.1871 214.712 62.0265Z" fill="#548CFF"/>
<path d="M212.426 66.8788C211.505 67.1823 210.536 67.3047 209.57 67.2395C208.599 67.2092 207.644 66.9857 206.758 66.5818C207.68 66.2678 208.655 66.1453 209.624 66.2215C210.591 66.2528 211.543 66.476 212.426 66.8788Z" fill="#548CFF"/>
<path d="M214.192 71.9427C213.75 72.8178 213.15 73.6003 212.421 74.2488C211.711 74.925 210.877 75.4535 209.966 75.8045C210.405 74.9222 211.01 74.1354 211.747 73.4887C212.459 72.8215 213.288 72.2969 214.192 71.9427Z" fill="#548CFF"/>
<path d="M226.248 67.6031C227.171 67.2939 228.145 67.1715 229.114 67.2429C230.082 67.269 231.035 67.4925 231.916 67.9001C230.996 68.2084 230.026 68.331 229.06 68.2609C228.09 68.2254 227.135 68.0022 226.248 67.6031Z" fill="#548CFF"/>
<path d="M224.482 62.5389C225.404 60.7915 226.899 59.4254 228.707 58.6771C227.785 60.4245 226.29 61.7905 224.482 62.5389Z" fill="#548CFF"/>
</g>
<defs>
<clipPath id="clip0_1885_6889">
<rect width="450" height="105" fill="white" transform="translate(6.05597 0.295898) rotate(3)"/>
</clipPath>
</defs>
</svg>
