<svg width="298" height="341" viewBox="0 0 298 341" fill="none" xmlns="http://www.w3.org/2000/svg">
<g clip-path="url(#clip0_1885_6907)">
<path d="M233.455 112.59L231.093 129.305C230.905 130.98 230.375 132.6 229.535 134.065C228.694 135.531 227.561 136.813 226.205 137.832C224.849 138.851 223.297 139.586 221.645 139.993C219.993 140.4 218.275 140.47 216.596 140.198C214.92 139.967 213.307 139.41 211.85 138.561C210.392 137.712 209.118 136.586 208.101 135.249C207.084 133.911 206.343 132.388 205.922 130.766C205.5 129.144 205.406 127.456 205.644 125.797L209.417 99.0549C209.454 98.8034 209.718 98.8395 209.755 98.578C209.528 98.2904 209.528 98.2904 209.565 98.0289C210.126 94.7303 211.94 91.768 214.637 89.7499C217.333 87.7317 220.706 86.8108 224.064 87.1762C240.42 89.4138 255.484 78.3817 257.736 62.4506C260.014 46.2586 248.547 31.8451 232.181 29.5981C227.14 28.8903 221.998 29.5088 217.273 31.3914C212.547 33.2741 208.404 36.3546 205.26 40.3231C204.212 41.6702 202.903 42.7974 201.411 43.6391C199.918 44.4808 198.272 45.0202 196.568 45.2256C194.863 45.4311 193.135 45.2987 191.483 44.8359C189.832 44.3732 188.29 43.5896 186.949 42.5306C185.628 41.4905 184.529 40.2012 183.716 38.7374C182.902 37.2736 182.39 35.6643 182.209 34.0026C182.028 32.341 182.182 30.66 182.662 29.0569C183.142 27.4537 183.938 25.9604 185.004 24.6632C190.63 17.5409 197.954 11.9121 206.319 8.28251C214.683 4.65292 223.825 3.13629 232.923 3.86891C242.021 4.60153 250.79 7.56045 258.443 12.4798C266.095 17.3991 272.391 24.1246 276.764 32.0521C281.138 39.9795 283.452 48.8605 283.498 57.8968C283.545 66.9331 281.322 75.8418 277.031 83.8221C272.739 91.8024 266.513 98.6044 258.912 103.617C251.311 108.629 242.572 111.695 233.482 112.539L233.455 112.59ZM225.514 168.911L224.859 173.537C224.666 175.209 224.132 176.824 223.289 178.286C222.446 179.747 221.312 181.024 219.956 182.039C218.6 183.054 217.05 183.786 215.401 184.19C213.751 184.594 212.036 184.662 210.359 184.39C206.988 183.922 203.944 182.149 201.893 179.461C199.843 176.772 198.954 173.388 199.421 170.049L200.066 165.423C200.597 162.11 202.404 159.128 205.108 157.104C207.812 155.08 211.202 154.172 214.565 154.57C216.239 154.786 217.852 155.329 219.31 156.169C220.768 157.009 222.043 158.129 223.058 159.463C224.074 160.796 224.81 162.317 225.225 163.936C225.639 165.555 225.723 167.241 225.472 168.893L225.514 168.911Z" fill="#575658"/>
<path d="M42.4658 235.698L37.5842 219.532C37.0603 217.933 36.8699 216.245 37.0244 214.571C37.1788 212.896 37.6751 211.27 38.483 209.79C39.2909 208.311 40.3936 207.008 41.7245 205.962C43.0553 204.916 44.5865 204.148 46.2253 203.705C49.4888 202.743 53.0032 203.1 55.9985 204.698C58.9937 206.296 61.2253 209.005 62.2043 212.232L70.0142 238.088C70.0876 238.333 69.8292 238.407 69.9031 238.663C70.2344 238.825 70.2344 238.825 70.3083 239.081C71.185 242.308 70.7804 245.747 69.1775 248.692C67.5745 251.636 64.8948 253.863 61.6878 254.916C57.9434 255.981 54.4473 257.767 51.3999 260.172C48.3526 262.576 45.8141 265.552 43.9297 268.928C42.0453 272.304 40.8522 276.015 40.4188 279.847C39.9853 283.679 40.3201 287.557 41.4038 291.259C46.1375 306.914 62.6232 315.294 78.464 310.601C83.3495 309.171 87.7694 306.493 91.2784 302.835C94.7874 299.177 97.2615 294.67 98.4514 289.767C98.8385 288.111 99.5549 286.548 100.559 285.169C101.562 283.79 102.834 282.622 104.298 281.734C105.762 280.846 107.39 280.255 109.087 279.997C110.783 279.738 112.514 279.816 114.179 280.227C115.814 280.627 117.352 281.343 118.705 282.334C120.058 283.326 121.199 284.572 122.063 286.003C122.926 287.433 123.495 289.018 123.736 290.668C123.977 292.318 123.886 293.998 123.468 295.614C121.342 304.404 117.043 312.536 110.958 319.279C104.873 326.022 97.1929 331.164 88.6071 334.244C80.0214 337.324 70.7994 338.246 61.7698 336.925C52.7402 335.604 44.186 332.083 36.8758 326.678C29.5656 321.273 23.7286 314.153 19.8892 305.959C16.0498 297.765 14.3284 288.752 14.8797 279.731C15.431 270.711 18.2376 261.965 23.0474 254.279C27.8573 246.593 34.5195 240.209 42.4356 235.7L42.4658 235.698ZM26.037 181.253L24.6831 176.782C24.1577 175.183 23.9659 173.494 24.1196 171.818C24.2733 170.143 24.7691 168.515 25.5771 167.034C26.3851 165.553 27.4883 164.25 28.8199 163.203C30.1516 162.157 31.6838 161.388 33.3237 160.945C36.5886 159.983 40.1043 160.341 43.0999 161.941C46.0955 163.542 48.3264 166.253 49.3032 169.482L50.657 173.953C51.5639 177.182 51.1715 180.634 49.5622 183.585C47.9528 186.536 45.2517 188.756 42.026 189.779C40.4099 190.28 38.7093 190.455 37.0244 190.296C35.3395 190.136 33.7041 189.645 32.2145 188.85C30.7248 188.056 29.4109 186.975 28.3501 185.67C27.2892 184.365 26.5028 182.864 26.037 181.253Z" fill="#575658"/>
<path d="M174.731 159.786C174.778 160.674 175.089 161.528 175.626 162.24C176.163 162.953 176.902 163.491 177.749 163.787C178.595 164.084 179.512 164.125 180.383 163.906C181.254 163.686 182.04 163.216 182.641 162.555C183.243 161.894 183.633 161.071 183.762 160.191C183.892 159.311 183.754 158.413 183.368 157.61C182.982 156.808 182.364 156.137 181.592 155.683C180.82 155.229 179.929 155.011 179.032 155.058C177.829 155.121 176.7 155.655 175.893 156.541C175.087 157.428 174.669 158.595 174.731 159.786Z" fill="white"/>
<path d="M174.731 159.786C174.79 160.911 175.298 161.966 176.143 162.719C176.988 163.472 178.102 163.862 179.238 163.802C180.374 163.743 181.441 163.239 182.203 162.402C182.965 161.564 183.36 160.462 183.301 159.337C183.242 158.212 182.734 157.157 181.888 156.404C181.043 155.65 179.93 155.261 178.794 155.32C177.657 155.38 176.591 155.884 175.829 156.721C175.067 157.559 174.672 158.661 174.731 159.786ZM174.731 159.786C174.584 153.524 183.765 152.993 184.306 159.284C184.425 165.587 175.239 166.019 174.731 159.786Z" fill="#2E2D2F"/>
<path d="M168.79 153.049C172.396 152.86 175.167 149.814 174.98 146.246C174.793 142.677 171.718 139.938 168.113 140.127C164.508 140.316 161.737 143.362 161.924 146.93C162.111 150.498 165.185 153.238 168.79 153.049Z" fill="white"/>
<path d="M161.914 146.931C161.965 147.948 162.267 148.937 162.793 149.812C163.32 150.686 164.056 151.42 164.935 151.947C165.815 152.475 166.812 152.781 167.84 152.838C168.867 152.896 169.893 152.703 170.829 152.276C171.764 151.85 172.579 151.204 173.204 150.394C173.829 149.583 174.243 148.634 174.411 147.629C174.58 146.624 174.496 145.593 174.169 144.628C173.841 143.662 173.28 142.792 172.533 142.091C168.578 138.216 161.542 141.38 161.914 146.931ZM161.914 146.931C161.854 145.817 162.074 144.706 162.554 143.697C163.035 142.688 163.761 141.813 164.668 141.151C165.575 140.488 166.633 140.058 167.748 139.901C168.864 139.743 170.001 139.862 171.057 140.247C172.114 140.632 173.057 141.271 173.802 142.107C174.547 142.942 175.07 143.948 175.325 145.034C175.58 146.12 175.558 147.252 175.261 148.328C174.964 149.404 174.402 150.39 173.625 151.198C172.706 152.142 171.529 152.801 170.239 153.094C168.948 153.387 167.6 153.302 166.358 152.85C165.117 152.397 164.035 151.597 163.246 150.545C162.457 149.494 161.994 148.238 161.914 146.931Z" fill="#2E2D2F"/>
<path d="M115.217 162.714C144.025 161.205 166.477 142.771 165.364 121.542C164.252 100.313 139.996 84.3269 111.188 85.8366C82.3801 87.3464 59.9285 105.78 61.0411 127.009C62.1537 148.238 86.4091 164.224 115.217 162.714Z" fill="white"/>
<path d="M62.0014 118.005C56.9333 136.769 71.5895 152.772 88.5805 158.67C97.0375 161.65 106.011 162.933 114.978 162.442C123.945 161.952 132.725 159.698 140.806 155.813C151.349 150.679 160.844 141.915 163.913 130.424C170.331 104.501 143.388 87.6939 120.345 86.2061C97.387 84.2247 69.1128 94.3518 62.0014 118.005ZM62.0014 118.005C69.0769 94.2439 97.3755 84.0057 120.378 85.6753C132.347 86.5854 144.402 90.476 153.598 98.3298C162.926 106.007 168.276 118.784 164.885 130.682C155.888 160.314 114.904 169.24 88.4749 158.965C71.5339 152.865 56.8544 136.803 62.0019 118.015L62.0014 118.005Z" fill="#2E2D2F"/>
<path d="M113.603 126.342L113.802 130.135C113.832 130.514 113.783 130.895 113.659 131.255C113.534 131.615 113.337 131.946 113.079 132.228C112.821 132.51 112.507 132.736 112.157 132.894C111.808 133.052 111.429 133.137 111.045 133.145C110.28 133.182 109.532 132.919 108.963 132.412C108.394 131.905 108.051 131.196 108.009 130.439L107.69 124.366C107.687 124.306 107.748 124.303 107.745 124.243C107.741 124.184 107.681 124.187 107.678 124.127C107.676 123.381 107.956 122.661 108.462 122.108C108.969 121.555 109.666 121.209 110.416 121.138C112.168 121.047 113.813 120.269 114.988 118.978C116.163 117.686 116.772 115.986 116.681 114.251C116.59 112.516 115.807 110.889 114.503 109.728C113.2 108.566 111.483 107.965 109.73 108.057C108.585 108.113 107.475 108.467 106.511 109.082C105.547 109.696 104.762 110.551 104.236 111.559C104.061 111.903 103.82 112.208 103.525 112.458C103.23 112.708 102.888 112.898 102.519 113.016C102.15 113.134 101.76 113.178 101.374 113.145C100.987 113.112 100.611 113.003 100.268 112.825C99.9313 112.652 99.633 112.414 99.39 112.125C99.1469 111.837 98.9639 111.504 98.8513 111.145C98.7388 110.787 98.699 110.409 98.7343 110.035C98.7695 109.661 98.8791 109.298 99.0568 108.965C99.9956 107.153 101.375 105.598 103.07 104.443C104.765 103.287 106.723 102.566 108.768 102.344C110.813 102.123 112.881 102.407 114.787 103.173C116.692 103.938 118.375 105.16 119.684 106.73C120.994 108.299 121.889 110.166 122.288 112.163C122.688 114.16 122.58 116.225 121.974 118.171C121.368 120.118 120.284 121.886 118.817 123.316C117.351 124.746 115.55 125.793 113.574 126.364L113.603 126.342ZM114.273 139.125L114.329 140.181C114.358 140.56 114.309 140.941 114.185 141.301C114.061 141.66 113.863 141.991 113.605 142.273C113.347 142.555 113.033 142.782 112.684 142.939C112.334 143.097 111.956 143.182 111.572 143.19C110.807 143.228 110.058 142.964 109.489 142.457C108.92 141.95 108.577 141.241 108.535 140.484L108.48 139.429C108.453 138.674 108.724 137.939 109.234 137.378C109.745 136.816 110.456 136.473 111.217 136.42C111.598 136.394 111.981 136.443 112.343 136.565C112.705 136.688 113.038 136.881 113.323 137.133C113.608 137.385 113.839 137.691 114.002 138.034C114.165 138.376 114.258 138.747 114.273 139.125Z" fill="#7900FF"/>
</g>
<defs>
<clipPath id="clip0_1885_6907">
<rect width="280" height="325" fill="white" transform="translate(0.687256 15.5498) rotate(-3)"/>
</clipPath>
</defs>
</svg>
