<svg width="45" height="45" viewBox="0 0 45 45" fill="none" xmlns="http://www.w3.org/2000/svg">
<path d="M30.7868 5.38666C30.5585 5.51189 29.2031 6.85988 29.0853 7.08086C29.0042 7.23555 28.9821 7.68488 28.9821 9.26122C28.9821 11.1175 28.9748 11.2501 28.8422 11.3679C28.7022 11.4931 28.6801 11.4858 28.1571 11.1322C27.0301 10.3588 25.5643 9.76948 24.2237 9.53376C23.3839 9.38644 21.6897 9.39381 20.7984 9.54113C19.9955 9.67372 18.8022 10.0568 18.1614 10.3735L17.7194 10.6018H13.2998C9.17478 10.6018 8.85804 10.6092 8.43817 10.7418C7.35536 11.0806 6.4346 12.0088 6.11786 13.0989C6.01473 13.4599 6 14.469 6 22.1003C6 30.3282 6.00737 30.7186 6.13996 31.1458C6.47879 32.2286 7.40692 33.1494 8.4971 33.4661C8.85804 33.5693 10.3018 33.584 22.5 33.584C34.6982 33.584 36.142 33.5693 36.5029 33.4661C37.5931 33.1494 38.5212 32.2286 38.86 31.1458C38.9926 30.7186 39 30.3282 39 22.0929C39 13.8576 38.9926 13.4672 38.86 13.04C38.5875 12.1708 37.8583 11.3164 37.048 10.9333C36.6723 10.7565 36.6429 10.7271 36.6429 10.484C36.6429 10.344 36.606 10.1525 36.5618 10.0641C36.444 9.83577 32.1569 5.53399 31.9138 5.4014C31.6781 5.28354 31.0004 5.26881 30.7868 5.38666ZM23.7375 11.9351C24.7172 12.0898 26.1462 12.657 26.7208 13.121L26.927 13.2905L25.9031 14.307L24.8866 15.3235L24.4888 15.1393C23.8406 14.8447 23.2661 14.7268 22.4779 14.7268C21.5866 14.7268 21.0342 14.8594 20.2533 15.2646C19.1411 15.8391 18.2203 17.003 17.9036 18.2331C17.7489 18.8297 17.7489 20.0525 17.9036 20.6492C18.2203 21.8793 19.1411 23.0431 20.2607 23.6251C21.0047 24.0081 21.6087 24.1554 22.4779 24.1554C23.3766 24.1554 23.8038 24.0597 24.6214 23.6693C25.5348 23.2273 26.2346 22.5496 26.6839 21.6509C27.0007 21.0101 27.2143 20.3177 27.2143 19.9273C27.2143 19.721 27.1185 19.8021 25.94 20.9659C24.8645 22.034 24.6214 22.2402 24.3489 22.3139C23.5312 22.5349 22.8167 21.8056 22.9788 20.9291C23.023 20.6934 23.4944 20.1925 26.8681 16.8041L30.7132 12.9516L33.2176 12.9737C35.5674 12.9958 35.7368 13.0032 35.9725 13.1431C36.2967 13.3347 36.4882 13.5998 36.5692 13.9608C36.6134 14.1228 36.6429 17.3197 36.6429 21.2605V28.2804H31.9949H27.3542L28.0025 27.8458C28.8496 27.2786 29.4167 26.7851 29.9987 26.1295C31.2583 24.7079 32.0906 22.9621 32.4147 21.1132C32.6578 19.6989 32.4442 17.0103 32.0317 16.3842C31.715 15.898 30.8679 15.736 30.3817 16.0675C29.8071 16.4652 29.7188 16.8925 29.9692 18.0342C30.1681 18.9476 30.1092 20.546 29.8366 21.4668C28.3339 26.542 22.4779 28.6634 18.1835 25.6949C16.7397 24.6931 15.7011 23.242 15.156 21.4668C14.9719 20.848 14.9571 20.7155 14.9571 19.4411C14.9571 18.1668 14.9719 18.0342 15.156 17.4155C16.3199 13.5998 19.885 11.3237 23.7375 11.9351ZM14.6846 13.0989C13.5281 14.6605 12.8725 16.119 12.5926 17.7027C12.4453 18.5498 12.4453 20.3251 12.5926 21.1648C12.821 22.4539 13.4103 23.9418 14.1248 25.0025C14.8982 26.159 15.7674 27.0134 16.9975 27.8458L17.6458 28.2804H12.9978H8.35714L8.37188 21.0764C8.39397 14.0344 8.39397 13.8724 8.54129 13.6293C8.72545 13.3199 8.99799 13.1063 9.3221 13.0326C9.46205 13.0032 10.7438 12.9737 12.1801 12.9664C14.7067 12.959 14.7804 12.9664 14.6846 13.0989Z" fill="#7900FF"/>
<path d="M17.4396 34.8947C17.3144 34.961 16.9976 35.1746 16.7398 35.3588C16.482 35.5429 16.0916 35.7713 15.8706 35.8597C15.0603 36.1985 14.8394 36.4637 14.8394 37.1193C14.8394 37.5981 15.0161 37.9295 15.3697 38.1505C15.6054 38.2979 15.7601 38.2979 22.5001 38.2979C29.24 38.2979 29.3947 38.2979 29.6304 38.1505C29.984 37.9295 30.1608 37.5981 30.1608 37.1193C30.1608 36.5742 29.9472 36.2574 29.3211 35.9112C29.0632 35.7639 28.6802 35.5135 28.474 35.3514C27.6563 34.7032 28.253 34.7621 22.6474 34.7621C18.051 34.7621 17.6606 34.7695 17.4396 34.8947Z" fill="#7900FF"/>
</svg>
