<svg width="45" height="45" viewBox="0 0 45 45" fill="none" xmlns="http://www.w3.org/2000/svg">
<path d="M8.32857 9.36002C7.83728 9.55377 7.33214 10.0589 7.14531 10.564C7 10.9515 7 10.9585 7 22.5004C7 34.0424 7 34.0493 7.14531 34.4368C7.33906 34.9489 7.83728 35.4471 8.34933 35.6408L8.73683 35.7861H22.5H36.2632L36.6507 35.6408C37.1627 35.4471 37.6609 34.9489 37.8547 34.4368C38 34.0493 38 34.0216 38 23.8497V13.6433L29.5788 13.6294C21.8288 13.6087 21.1368 13.6018 20.9431 13.491C20.8324 13.4288 19.8013 12.4393 18.6596 11.2975L16.5837 9.2147L12.6395 9.22162C8.84754 9.22162 8.68147 9.22854 8.32857 9.36002ZM10.8612 11.6366C11.7607 12.1832 11.3732 13.5741 10.3214 13.5741C10.1346 13.5741 9.92009 13.5187 9.7817 13.4357C8.88214 12.889 9.26964 11.4982 10.3214 11.4982C10.5083 11.4982 10.7228 11.5535 10.8612 11.6366ZM15.2897 11.6366C16.1893 12.1832 15.8018 13.5741 14.75 13.5741C14.1618 13.5741 13.7121 13.1243 13.7121 12.5361C13.7121 12.1625 13.8989 11.8303 14.2103 11.6366C14.3487 11.5535 14.5632 11.4982 14.75 11.4982C14.9368 11.4982 15.1513 11.5535 15.2897 11.6366ZM24.0569 20.4453C24.4375 20.6321 24.7143 21.0335 24.7143 21.4071C24.7143 21.7116 22.4585 28.4652 22.2786 28.6935C22.0848 28.9426 21.7734 29.0879 21.4275 29.0879C20.9085 29.0879 20.5002 28.7696 20.3549 28.2506C20.2926 28.0223 20.3895 27.704 21.469 24.4518C22.3616 21.76 22.7007 20.8466 22.8391 20.6944C23.1504 20.3415 23.6417 20.2377 24.0569 20.4453ZM18.5696 21.5732C18.971 21.7808 19.1717 22.2513 19.0748 22.7564C19.0402 22.971 18.8672 23.1785 18.1891 23.8636L17.3518 24.7147L18.1891 25.5589C19.0886 26.4723 19.1786 26.6384 19.0748 27.185C19.0194 27.5102 18.6665 27.8631 18.3136 27.96C17.76 28.1122 17.6147 28.0154 16.1893 26.5968C15.1306 25.5312 14.8884 25.2475 14.8123 25.0053C14.6462 24.4379 14.75 24.2788 16.1893 22.8326C17.5386 21.4902 17.7185 21.3587 18.1752 21.4417C18.2929 21.4625 18.4658 21.5247 18.5696 21.5732ZM27.4475 21.587C27.5237 21.6285 28.1533 22.2306 28.8453 22.9294C30.1946 24.2926 30.2569 24.3826 30.1462 24.9707C30.1116 25.1922 29.904 25.4343 28.7761 26.5622C27.6967 27.6417 27.3991 27.8977 27.1708 27.96C26.3958 28.1676 25.6554 27.4134 25.8837 26.6453C25.9529 26.4239 26.1536 26.1817 26.8109 25.5381L27.6551 24.7147L26.8386 23.9189C25.8007 22.9087 25.6761 22.6388 25.9598 22.0437C26.2366 21.4763 26.8871 21.2756 27.4475 21.587Z" fill="#548CFF"/>
<path d="M20.6662 10.3216L21.7734 11.4287H29.8832H37.9999V11.1865C37.9999 10.4807 37.3772 9.6296 36.6506 9.35974C36.27 9.21443 36.2077 9.21443 27.9111 9.21443H19.5591L20.6662 10.3216Z" fill="#548CFF"/>
</svg>
