<svg width="45" height="45" viewBox="0 0 45 45" fill="none" xmlns="http://www.w3.org/2000/svg">
<path d="M21.4893 6.03809C20.6016 6.63574 19.1865 8.06836 18.5801 9.00879C18.0439 9.82617 17.4814 11.0391 17.3057 11.7334L17.209 12.1289H13.5879C10.6611 12.1289 9.87012 12.1553 9.4043 12.2695C8.4375 12.498 7.67285 13.043 7.11035 13.9131C6.49512 14.8711 6.50391 14.6602 6.50391 23.7217V31.8164L6.29297 31.8691C6.17871 31.8955 5.97656 32.0273 5.84473 32.168L5.61621 32.4053L5.64258 34.5498L5.66895 36.6943L5.92383 37.2217C6.28418 37.9512 6.99609 38.6719 7.7168 39.0322L8.30566 39.3311H22.5H36.6943L37.2832 39.0322C38.0039 38.6719 38.7158 37.9512 39.0762 37.2217L39.3311 36.6943L39.3574 34.5498L39.3838 32.4053L39.1553 32.168C39.0234 32.0273 38.8213 31.8955 38.707 31.8691L38.4961 31.8164V23.7041C38.4961 16.7432 38.4785 15.5215 38.3555 15.0293C38.127 14.0625 37.582 13.2979 36.7119 12.7354C35.8418 12.1729 35.4902 12.1289 31.4033 12.1289H27.8174L27.6592 11.5752C27.4219 10.793 26.9824 9.87012 26.4023 8.99121C25.8047 8.06836 24.3896 6.61816 23.5107 6.03809C22.667 5.47559 22.3418 5.47559 21.4893 6.03809ZM16.7695 15.9609L16.7432 17.8682L16.2686 17.9824C15.293 18.2373 14.1504 18.9844 13.4385 19.8369C12.9287 20.4521 12.4102 21.5508 12.2607 22.3506C12.085 23.2998 12.0762 26.2529 12.252 26.6748C12.4189 27.0615 12.832 27.2812 13.2627 27.2021C13.4385 27.167 14.5107 26.7715 15.6357 26.3145C17.6748 25.4971 17.7012 25.4883 17.877 25.6553C18.0967 25.8486 18.7559 26.1914 18.9141 26.1914C18.9756 26.1914 19.292 26.7363 19.6172 27.4043C20.4346 29.0918 20.3643 29.0391 21.999 29.0918C22.7373 29.1182 23.5723 29.1094 23.8623 29.0742C24.3281 29.0215 24.4248 28.9775 24.6621 28.7051C24.8115 28.5293 25.1719 27.8877 25.4531 27.29C25.7344 26.6836 26.0156 26.1914 26.0771 26.1914C26.2441 26.1914 26.9033 25.8486 27.123 25.6553C27.2988 25.4883 27.3252 25.4971 29.4961 26.3672C30.7002 26.8506 31.7725 27.2461 31.8867 27.2461C32.2031 27.2461 32.5898 27.0088 32.7393 26.7188C32.9238 26.3584 32.9238 23.335 32.7393 22.3506C32.3262 20.1709 30.5684 18.3779 28.3711 17.8945L28.125 17.8418V15.9434V14.0537L31.623 14.0801C34.998 14.1064 35.1211 14.1152 35.4639 14.2998C35.8682 14.5107 36.123 14.7744 36.3516 15.2051C36.5098 15.4951 36.5186 15.8994 36.5449 23.6602L36.5713 31.8164H22.5H8.42871L8.45508 23.6602C8.48145 15.8994 8.49023 15.4951 8.64844 15.2051C8.96484 14.5986 9.39551 14.2734 10.0195 14.1416C10.1865 14.1064 11.7773 14.0801 13.5615 14.0713L16.7871 14.0625L16.7695 15.9609ZM23.6953 16.2861C24.2578 16.5762 24.8994 17.2793 25.084 17.8154C25.3125 18.4834 25.2686 19.2832 24.9785 19.9072C24.4951 20.918 23.6162 21.4805 22.5 21.4805C21.3838 21.4805 20.5049 20.918 20.0215 19.9072C19.7314 19.2832 19.6875 18.4834 19.916 17.8154C20.1621 17.0947 20.9707 16.3477 21.7969 16.0752C22.2275 15.9346 23.2207 16.04 23.6953 16.2861ZM17.9648 34.2334L18.2812 34.7168H22.5H26.71L27.0439 34.2334L27.3779 33.75H28.415C28.9775 33.75 29.4434 33.7676 29.4434 33.7939C29.4434 33.9434 27.8174 36.2373 27.624 36.3604C27.4043 36.5098 27.0264 36.5186 22.4473 36.5186C17.6309 36.5186 17.5078 36.5098 17.3145 36.3428C17.1299 36.1758 15.5566 33.8994 15.5566 33.7939C15.5566 33.7676 16.0225 33.75 16.6025 33.75H17.6396L17.9648 34.2334Z" fill="#7900FF"/>
<path d="M25.9277 29.0654C25.8574 29.0918 25.6904 29.2148 25.5586 29.3379C25.3564 29.5225 25.3125 29.6367 25.3125 29.9971C25.3125 30.3486 25.3564 30.4629 25.5674 30.6826C25.7871 30.8936 25.9014 30.9375 26.2529 30.9375C26.6133 30.9375 26.7275 30.8936 26.9297 30.6914C27.6504 29.9355 26.8945 28.7139 25.9277 29.0654Z" fill="#7900FF"/>
<path d="M29.4785 29.1621C28.9424 29.5049 28.8721 30.2168 29.3291 30.6914C29.5225 30.8936 29.6367 30.9375 29.9971 30.9375C30.3487 30.9375 30.4629 30.8936 30.6826 30.6826C30.8936 30.4629 30.9375 30.3486 30.9375 29.9971C30.9375 29.6367 30.8936 29.5225 30.6826 29.3203C30.3487 28.9951 29.8477 28.9336 29.4785 29.1621Z" fill="#7900FF"/>
<path d="M33.2492 29.1799C33.0998 29.2678 32.924 29.426 32.8801 29.5227C32.6692 29.9182 32.8537 30.6565 33.2141 30.8499C33.4338 30.9641 34.0666 30.9641 34.2864 30.8499C34.6731 30.6389 34.8489 29.8479 34.5764 29.4612C34.4094 29.2239 34.0051 29.0042 33.7326 29.0042C33.6184 29.0042 33.4074 29.0833 33.2492 29.1799Z" fill="#7900FF"/>
</svg>
