<svg width="40" height="40" viewBox="0 0 40 40" fill="none" xmlns="http://www.w3.org/2000/svg">
<path d="M39.1556 34.5362L31.9995 27.3846C31.7913 27.1759 31.544 27.0103 31.2717 26.8974C30.9994 26.7844 30.7075 26.7263 30.4127 26.7263C30.1179 26.7263 29.826 26.7844 29.5538 26.8974C29.2815 27.0103 29.0341 27.1759 28.8259 27.3846L28.7072 27.4988L26.949 25.7406C28.3512 24.1842 29.4197 22.357 30.0888 20.3718C30.7578 18.3866 31.0132 16.2854 30.8391 14.1977C32.6654 12.5713 33.7968 10.3052 33.9995 7.86807C34.2457 5.17796 33.4061 2.67686 31.7358 0.997737C31.603 0.865415 31.4262 0.78649 31.239 0.775955C31.0518 0.76542 30.8672 0.82401 30.7204 0.940594C29.7245 1.74712 28.9025 2.74726 28.3041 3.88055C27.7057 5.01383 27.3434 6.2567 27.2391 7.534C27.0953 8.7269 27.2041 9.93672 27.5585 11.0848C27.9129 12.2329 28.505 13.2935 29.2962 14.1977C29.5956 17.3943 28.7701 20.5952 26.9622 23.2483C26.9358 23.0857 26.905 22.9318 26.8743 22.7736C26.9074 22.7308 26.934 22.6834 26.9534 22.6329C27.4678 21.1599 27.6694 19.5957 27.5452 18.0404C27.4211 16.4851 26.974 14.9727 26.2325 13.5999C24.738 10.7867 22.1534 8.81752 19.3138 8.32521C19.1339 8.29682 18.9497 8.33283 18.7937 8.42691C18.6377 8.52099 18.5199 8.66709 18.4611 8.8395C17.9457 10.3116 17.7436 11.8752 17.8677 13.4299C17.9919 14.9847 18.4395 16.4964 19.182 17.8681C19.7999 19.0965 20.6658 20.1834 21.725 21.0603C22.7842 21.9371 24.0136 22.5849 25.3358 22.9626C25.455 23.5208 25.5387 24.0861 25.5863 24.6549C25.596 24.7317 25.6152 24.807 25.6435 24.8791C25.538 24.9933 25.4369 25.1076 25.327 25.2175C23.4053 27.1391 20.9569 28.4476 18.2915 28.9777C15.6261 29.5078 12.8634 29.2357 10.3527 28.1957C7.84198 27.1556 5.69605 25.3944 4.18625 23.1348C2.67645 20.8752 1.8706 18.2186 1.8706 15.501C1.8706 12.7834 2.67645 10.1269 4.18625 7.86724C5.69605 5.60763 7.84198 3.84645 10.3527 2.80642C12.8634 1.76639 15.6261 1.49422 18.2915 2.02432C20.9569 2.55442 23.4053 3.86299 25.327 5.78455C25.3965 5.86337 25.4814 5.92711 25.5765 5.97185C25.6716 6.01659 25.7748 6.04137 25.8798 6.04466C25.9849 6.04796 26.0895 6.02971 26.1872 5.99102C26.2849 5.95234 26.3736 5.89404 26.4479 5.81974C26.5222 5.74544 26.5805 5.6567 26.6192 5.559C26.6579 5.4613 26.6761 5.3567 26.6728 5.25167C26.6695 5.14665 26.6448 5.04341 26.6 4.94832C26.5553 4.85324 26.4915 4.76833 26.4127 4.69884C24.6369 2.91885 22.4493 1.6046 20.0439 0.872668C17.6384 0.140732 15.0896 0.0137275 12.6233 0.502918C10.157 0.992108 7.84958 2.08237 5.90564 3.67702C3.96169 5.27166 2.44132 7.32139 1.47936 9.64442C0.517408 11.9674 0.143604 14.492 0.391103 16.9941C0.638603 19.4962 1.49976 21.8985 2.89819 23.9881C4.29662 26.0776 6.1891 27.7898 8.40779 28.9727C10.6265 30.1556 13.1028 30.7726 15.6171 30.7692C19.4068 30.7767 23.0619 29.3654 25.8633 26.8131L27.6215 28.5714L27.5072 28.69C27.2984 28.8986 27.1328 29.1464 27.0198 29.419C26.9068 29.6917 26.8486 29.9839 26.8486 30.2791C26.8486 30.5742 26.9068 30.8665 27.0198 31.1391C27.1328 31.4118 27.2984 31.6595 27.5072 31.8681L34.6545 39.0373C35.0769 39.4568 35.6481 39.6923 36.2435 39.6923C36.8389 39.6923 37.4101 39.4568 37.8325 39.0373L39.1512 37.7186C39.5737 37.2972 39.8116 36.7251 39.8124 36.1283C39.8132 35.5315 39.577 34.9588 39.1556 34.5362ZM28.7732 7.69224C28.9428 5.78437 29.7747 3.99601 31.1248 2.6373C32.192 4.11038 32.6715 5.92841 32.4699 7.7362C32.2995 9.64388 31.4677 11.432 30.1182 12.7911C29.0479 11.3195 28.568 9.50028 28.7732 7.69224ZM25.9951 19.8285C25.2987 18.0767 24.2888 16.4665 23.0149 15.0769C22.8709 14.9323 22.6754 14.8509 22.4714 14.8504C22.2674 14.85 22.0716 14.9307 21.927 15.0747C21.7824 15.2186 21.701 15.4141 21.7006 15.6182C21.7002 15.8222 21.7808 16.018 21.9248 16.1626C23.2318 17.6201 24.2292 19.3279 24.8567 21.1824C22.9875 20.3855 21.4591 18.9551 20.5402 17.1428C19.3745 14.9513 19.0764 12.4013 19.705 9.99994C20.8147 10.3318 21.8453 10.886 22.734 11.6288C23.6226 12.3717 24.3508 13.2876 24.8743 14.3208C25.7677 16.0115 26.1567 17.9231 25.9951 19.8285ZM38.0655 36.6241L36.7468 37.9428C36.681 38.0087 36.6029 38.061 36.517 38.0967C36.431 38.1324 36.3388 38.1508 36.2457 38.1508C36.1526 38.1508 36.0604 38.1324 35.9744 38.0967C35.8884 38.061 35.8103 38.0087 35.7446 37.9428L28.571 30.7955C28.505 30.7298 28.4527 30.6517 28.4171 30.5657C28.3814 30.4797 28.363 30.3875 28.363 30.2944C28.363 30.2013 28.3814 30.1092 28.4171 30.0232C28.4527 29.9372 28.505 29.8591 28.571 29.7933L29.8896 28.4747C30.023 28.3426 30.2031 28.2685 30.3907 28.2685C30.5784 28.2685 30.7585 28.3426 30.8918 28.4747L38.0655 35.6043C38.1341 35.6704 38.1886 35.7495 38.2259 35.8372C38.2632 35.9248 38.2824 36.019 38.2824 36.1142C38.2824 36.2094 38.2632 36.3037 38.2259 36.3913C38.1886 36.4789 38.1341 36.5581 38.0655 36.6241Z" fill="#7900FF"/>
<path d="M15.6217 6.2157C16.4303 6.21544 17.2356 6.32035 18.0173 6.52779C18.1161 6.55792 18.22 6.56784 18.3227 6.55693C18.4255 6.54603 18.525 6.51454 18.6153 6.46434C18.7056 6.41414 18.7849 6.34626 18.8484 6.26475C18.9119 6.18324 18.9583 6.08977 18.9849 5.98992C19.0115 5.89008 19.0177 5.78589 19.0031 5.6836C18.9886 5.5813 18.9536 5.48299 18.9002 5.39452C18.8468 5.30606 18.7761 5.22926 18.6924 5.1687C18.6087 5.10815 18.5136 5.06508 18.4129 5.04208C16.9238 4.6429 15.3666 4.56634 13.8456 4.81752C12.3246 5.06871 10.8747 5.64184 9.59304 6.49858C8.31137 7.35532 7.22746 8.4759 6.41382 9.78535C5.60018 11.0948 5.07558 12.5629 4.87512 14.0915C4.67466 15.62 4.80296 17.1738 5.25144 18.6487C5.69992 20.1237 6.45823 21.4859 7.47565 22.6441C8.49306 23.8024 9.7461 24.73 11.1509 25.3649C12.5558 25.9998 14.08 26.3273 15.6217 26.3256C16.1022 26.3254 16.5823 26.2945 17.059 26.2333C17.161 26.2225 17.2597 26.1914 17.3495 26.1418C17.4392 26.0923 17.5182 26.0253 17.5817 25.9449C17.6452 25.8644 17.692 25.772 17.7193 25.6732C17.7466 25.5744 17.7538 25.4711 17.7407 25.3694C17.7275 25.2678 17.6941 25.1698 17.6425 25.0812C17.5909 24.9926 17.5221 24.9152 17.4402 24.8536C17.3582 24.792 17.2648 24.7473 17.1654 24.7223C17.066 24.6973 16.9625 24.6925 16.8612 24.708C16.4501 24.7605 16.0361 24.7869 15.6217 24.7871C14.3852 24.814 13.1559 24.5937 12.0058 24.1392C10.8556 23.6846 9.80783 23.0049 8.92389 22.14C8.03994 21.2751 7.33763 20.2423 6.85815 19.1024C6.37868 17.9624 6.1317 16.7381 6.1317 15.5014C6.1317 14.2647 6.37868 13.0405 6.85815 11.9005C7.33763 10.7605 8.03994 9.72775 8.92389 8.86282C9.80783 7.9979 10.8556 7.31822 12.0058 6.86366C13.1559 6.40909 14.3852 6.1888 15.6217 6.2157Z" fill="#7900FF"/>
<path d="M20.5629 24.7031C20.5628 24.5526 20.5184 24.4054 20.4351 24.2801C20.3518 24.1547 20.2334 24.0567 20.0946 23.9983C19.9559 23.94 19.803 23.9238 19.6552 23.9519C19.5073 23.9801 19.371 24.0512 19.2634 24.1564C19.1558 24.2616 19.0816 24.3962 19.0501 24.5434C19.0186 24.6906 19.0313 24.8438 19.0865 24.9838C19.1417 25.1238 19.237 25.2445 19.3604 25.3306C19.4839 25.4167 19.63 25.4645 19.7805 25.4679C19.8824 25.4703 19.9837 25.4522 20.0785 25.4148C20.1734 25.3775 20.2598 25.3215 20.3327 25.2502C20.4056 25.179 20.4635 25.0939 20.503 24.9999C20.5426 24.906 20.5629 24.805 20.5629 24.7031Z" fill="#7900FF"/>
</svg>
