<svg width="27" height="40" viewBox="0 0 27 40" fill="none" xmlns="http://www.w3.org/2000/svg">
<path d="M22.2652 14.7209V7.73187C22.2652 3.47692 18.2124 0 13.219 0H12.9992C8.01463 0 3.96188 3.47692 3.96188 7.73187V14.7209C2.798 15.3224 1.82171 16.2321 1.13957 17.3506C0.457435 18.4692 0.0956663 19.7536 0.09375 21.0637V32.8C0.0960764 34.696 0.850299 36.5137 2.19099 37.8544C3.53168 39.1951 5.34938 39.9493 7.2454 39.9516H18.9817C20.8777 39.9493 22.6954 39.1951 24.0361 37.8544C25.3768 36.5137 26.131 34.696 26.1333 32.8V21.0637C26.1314 19.7536 25.7696 18.4692 25.0875 17.3506C24.4054 16.2321 23.4291 15.3224 22.2652 14.7209ZM5.50034 7.73187C5.50034 4.32527 8.86298 1.54725 12.9992 1.54725H13.219C17.3509 1.54725 20.6916 4.32527 20.6916 7.73187V14.1407C20.1981 14.0152 19.6927 13.943 19.1839 13.9253V8.40879C19.1839 5.54286 16.4762 3.21319 13.1531 3.21319H13.0036C9.68056 3.21319 6.97287 5.54286 6.97287 8.40879V13.9253C6.46406 13.943 5.9586 14.0152 5.46518 14.1407L5.50034 7.73187ZM17.6806 13.9165H8.5465V8.40879C8.5465 6.39121 10.5641 4.75165 13.0388 4.75165H13.1883C15.663 4.75165 17.6806 6.39121 17.6806 8.40879V13.9165ZM24.5948 32.8176C24.5879 34.3025 23.9937 35.7244 22.942 36.7728C21.8904 37.8212 20.4666 38.4109 18.9817 38.4132H7.2454C5.7574 38.4109 4.33102 37.8187 3.27884 36.7666C2.22667 35.7144 1.63454 34.288 1.63221 32.8V21.0637C1.63454 19.5761 2.22681 18.1502 3.27911 17.0987C4.33141 16.0473 5.75781 15.4561 7.2454 15.4549H18.9817C20.4693 15.4561 21.8957 16.0473 22.9479 17.0987C24.0002 18.1502 24.5925 19.5761 24.5948 21.0637V32.8176Z" fill="#7900FF"/>
<path d="M19.9617 20.9319C19.8869 20.8639 19.7994 20.8114 19.7042 20.7774C19.6089 20.7434 19.5079 20.7287 19.4069 20.734C19.306 20.7393 19.2071 20.7646 19.1159 20.8084C19.0248 20.8521 18.9433 20.9136 18.876 20.9891L13.2672 27.2528L12.0101 24.9539C11.964 24.8626 11.9003 24.7814 11.8226 24.7149C11.745 24.6484 11.6549 24.5979 11.5576 24.5665C11.4603 24.535 11.3578 24.5231 11.2559 24.5315C11.154 24.5399 11.0547 24.5684 10.9639 24.6154C10.8749 24.6632 10.7964 24.7283 10.7328 24.8068C10.6693 24.8853 10.622 24.9757 10.5938 25.0727C10.5655 25.1697 10.5569 25.2713 10.5684 25.3717C10.5799 25.472 10.6112 25.5691 10.6606 25.6572L12.4189 28.9099C12.4786 29.0178 12.5632 29.11 12.6656 29.1788C12.7681 29.2476 12.8854 29.291 13.0079 29.3055H13.0958C13.2036 29.3055 13.3102 29.2827 13.4086 29.2388C13.507 29.1949 13.5951 29.1308 13.6672 29.0506L19.3815 22.6902C20.3654 24.1666 20.7964 25.943 20.5984 27.7061C20.4004 29.4692 19.5861 31.1058 18.2992 32.3272C17.0124 33.5486 15.3355 34.2763 13.5645 34.3821C11.7934 34.4878 10.0419 33.9648 8.61886 32.9052C7.1958 31.8456 6.19261 30.3175 5.78623 28.5905C5.37984 26.8634 5.59636 25.0484 6.3976 23.4654C7.19884 21.8824 8.53332 20.6332 10.1657 19.9381C11.7981 19.243 13.6235 19.1466 15.32 19.666C15.4182 19.7004 15.5224 19.7146 15.6262 19.7076C15.7301 19.7007 15.8314 19.6727 15.9241 19.6254C16.0169 19.5781 16.099 19.5125 16.1657 19.4325C16.2323 19.3526 16.282 19.2599 16.3118 19.1602C16.3415 19.0604 16.3508 18.9557 16.3389 18.8523C16.327 18.7489 16.2942 18.649 16.2426 18.5586C16.191 18.4682 16.1215 18.3893 16.0385 18.3265C15.9555 18.2637 15.8606 18.2185 15.7595 18.1935C14.8943 17.9317 13.9953 17.7984 13.0914 17.7979C11.0148 17.797 9.00009 18.5052 7.38071 19.8051C5.76132 21.1051 4.63429 22.919 4.18608 24.9467C3.73787 26.9743 3.99536 29.0943 4.91593 30.9557C5.8365 32.8171 7.36498 34.3085 9.24848 35.183C11.132 36.0575 13.2576 36.2628 15.2736 35.7649C17.2897 35.2669 19.0753 34.0956 20.3351 32.4448C21.5948 30.7939 22.2532 28.7624 22.2013 26.6865C22.1494 24.6105 21.3903 22.6145 20.0496 21.0286C20.0496 21.0286 19.9837 20.9495 19.9617 20.9319Z" fill="#7900FF"/>
</svg>
