<svg width="40" height="40" viewBox="0 0 40 40" fill="none" xmlns="http://www.w3.org/2000/svg">
<path d="M38.021 35.5738C37.0452 34.2815 37.6649 33.6177 37.8803 33.4463C37.9817 33.3695 38.0621 33.2685 38.1144 33.1525C38.1666 33.0366 38.1889 32.9094 38.1792 32.7826C38.1792 30.7254 36.3682 29.1869 34.2935 29.1869H33.2342C34.0452 28.3135 34.4959 27.1657 34.4957 25.9738V24.976C34.4945 23.7149 33.9931 22.5059 33.1014 21.6142C32.2097 20.7225 31.0007 20.2211 29.7397 20.2199H24.9045C26.3412 19.1066 27.4932 17.6682 28.2657 16.023C29.0383 14.3778 29.4094 12.5727 29.3485 10.7562C29.3485 7.76716 27.8188 6.36057 26.5529 5.732C24.8772 4.9498 22.9647 4.84276 21.2122 5.4331C21.4067 5.06681 21.6818 4.74948 22.0169 4.50505C22.3519 4.26063 22.7381 4.09549 23.1463 4.02211C23.2512 4.01288 23.3532 3.98218 23.4459 3.9319C23.5385 3.88163 23.6198 3.81285 23.6847 3.72985C23.7497 3.64684 23.7969 3.55138 23.8234 3.44937C23.8499 3.34737 23.8552 3.241 23.8389 3.13688C23.8226 3.03275 23.7851 2.93308 23.7287 2.84406C23.6722 2.75504 23.5981 2.67856 23.5109 2.61937C23.4237 2.56018 23.3253 2.51954 23.2217 2.49997C23.1182 2.4804 23.0117 2.48233 22.9089 2.50562C22.2706 2.6048 21.6667 2.85997 21.1507 3.24848C21.0886 3.00577 21.0017 2.77009 20.8913 2.54518C20.544 1.85192 20.0076 1.27107 19.3441 0.869718C18.6806 0.468369 17.9172 0.262903 17.1419 0.277052C17.0282 0.278332 16.9164 0.305057 16.8144 0.355261C16.7125 0.405465 16.6231 0.477873 16.5529 0.567162C16.0718 1.1696 15.771 1.89593 15.6855 2.66213C15.5999 3.42833 15.733 4.2031 16.0693 4.89683C16.1001 4.95837 16.1397 5.00672 16.1704 5.06387C15.2213 5.08011 14.287 5.30206 13.432 5.71441C12.166 6.35617 10.654 7.74958 10.632 10.7386C10.5708 12.5599 10.9439 14.3697 11.7205 16.0183C12.497 17.667 13.6547 19.1071 15.0979 20.2199H9.66934C7.59461 20.2199 5.77483 21.8639 5.77483 23.7364C5.76888 23.8724 5.79253 24.0081 5.84413 24.1341C5.89574 24.26 5.97408 24.3733 6.07373 24.4661C6.3023 24.6375 6.95285 25.3452 5.94186 26.5979C5.83595 26.7354 5.77736 26.9035 5.77483 27.0771C5.7871 27.8485 6.05277 28.5945 6.53087 29.2001C5.3235 29.275 4.19003 29.8072 3.36118 30.6883C2.53232 31.5694 2.07037 32.7333 2.06934 33.943V34.9408C2.0705 36.2018 2.57196 37.4109 3.46363 38.3025C4.35531 39.1942 5.56436 39.6957 6.82538 39.6968H34.2847C36.3946 39.6968 38.1792 38.0265 38.1792 36.0485C38.1736 35.8783 38.1186 35.7133 38.021 35.5738ZM17.5507 1.83749C17.9631 1.89045 18.356 2.04469 18.6943 2.28645C19.0326 2.52821 19.3058 2.84997 19.4895 3.22301C19.6732 3.59604 19.7616 4.00876 19.747 4.42431C19.7324 4.83987 19.6151 5.24533 19.4056 5.60452C19.1937 5.56424 18.9851 5.50841 18.7814 5.43749C18.2061 5.20912 17.7362 4.7752 17.4627 4.21991C17.2803 3.84622 17.1928 3.43327 17.2082 3.01768C17.2235 2.6021 17.3411 2.19672 17.5507 1.83749ZM12.1704 10.7694C12.1704 8.98914 12.843 7.75837 14.1309 7.10343C14.8469 6.75642 15.6342 6.5818 16.4298 6.59354C17.2573 6.56426 18.0783 6.75057 18.8122 7.13419C18.5481 7.18216 18.2763 7.16404 18.021 7.08145C17.828 7.01383 17.6162 7.02563 17.4319 7.11425C17.2477 7.20286 17.1062 7.36104 17.0386 7.55398C16.971 7.74691 16.9827 7.95881 17.0714 8.14305C17.16 8.32729 17.3182 8.46878 17.5111 8.53639C17.8345 8.64262 18.1729 8.69605 18.5133 8.69464C19.0723 8.69506 19.6213 8.54616 20.1036 8.26333C20.5858 7.98049 20.9837 7.57399 21.2561 7.08584C21.9774 6.75489 22.7615 6.58356 23.5551 6.58356C24.3486 6.58356 25.1327 6.75489 25.854 7.08584C27.1419 7.74079 27.7968 8.97156 27.81 10.7518C27.8496 15.7847 24.8693 18.3825 23.577 19.2529C22.7902 19.7803 21.032 18.8133 21.01 18.8133C20.6773 18.6569 20.3116 18.5831 19.9443 18.5984C19.5769 18.6138 19.2187 18.7176 18.9001 18.9012C18.3463 19.2133 17.0232 19.7144 16.4078 19.2924C15.1199 18.3913 12.1353 15.8243 12.1704 10.7694ZM9.66934 21.7584H29.7397C30.1629 21.7572 30.5823 21.8396 30.9737 22.0008C31.3651 22.1619 31.7208 22.3988 32.0205 22.6977C32.3202 22.9966 32.558 23.3517 32.7203 23.7426C32.8825 24.1336 32.966 24.5527 32.966 24.976V25.9738C32.965 26.8173 32.6327 27.6267 32.0408 28.2277C31.4489 28.8286 30.6446 29.1731 29.8012 29.1869H9.6078C9.16863 29.1758 8.74038 29.0477 8.36719 28.8159C7.99401 28.5841 7.68938 28.257 7.48472 27.8683H29.1858C30.3507 27.8683 31.3001 26.8001 31.3001 25.4902C31.3001 24.1803 30.3507 23.1122 29.1858 23.1122H7.47153C7.67742 22.7058 7.99167 22.3643 8.37954 22.1254C8.76741 21.8865 9.21379 21.7594 9.66934 21.7584ZM8.0034 25.0155C7.98388 24.8798 7.95301 24.746 7.91109 24.6155H29.1858C29.4935 24.6155 29.7616 25.0067 29.7616 25.4551C29.7616 25.9034 29.4935 26.2946 29.1858 26.2946H7.84516C7.99188 25.8852 8.04154 25.4474 7.99022 25.0155H8.0034ZM34.2847 38.1584H6.82538C5.97238 38.1572 5.15465 37.8178 4.55149 37.2147C3.94833 36.6115 3.60896 35.7938 3.6078 34.9408V33.943C3.60896 33.09 3.94833 32.2723 4.55149 31.6691C5.15465 31.0659 5.97238 30.7266 6.82538 30.7254H34.2847C34.7364 30.7241 35.1799 30.8463 35.5673 31.0787C35.9546 31.3111 36.2711 31.6449 36.4825 32.0441H7.37923C6.21439 32.0441 5.26494 33.1122 5.26494 34.4221C5.26494 35.732 6.21439 36.8001 7.37923 36.8001H36.4825C36.2776 37.2076 35.9637 37.5503 35.5757 37.7901C35.1877 38.0299 34.7408 38.1574 34.2847 38.1584ZM36.0957 35.2793H7.37923C7.07153 35.2793 6.8034 34.888 6.8034 34.4397C6.8034 33.9913 7.07153 33.6001 7.37923 33.6001H36.043C36.007 33.7269 35.9805 33.8562 35.9638 33.9869C35.9105 34.4228 35.9586 34.8651 36.1045 35.2793H36.0957Z" fill="#7900FF"/>
</svg>
