<svg width="40" height="40" viewBox="0 0 40 40" fill="none" xmlns="http://www.w3.org/2000/svg">
<path d="M30.3747 25.9342L31.034 28.176C31.1219 28.5276 31.4296 28.7034 31.7812 28.7034C31.8692 28.7034 31.9131 28.7034 32.001 28.6595C32.3966 28.5276 32.6604 28.088 32.5285 27.6924L31.8252 25.4946C31.1659 23.2529 27.2098 21.9782 25.8032 21.6265L25.8472 21.4507C25.9351 21.1869 25.8472 20.8793 25.6274 20.6595L24.6164 19.6485C24.3087 19.3847 23.8692 19.3847 23.5615 19.6485L19.9571 23.121L16.3527 19.6485C16.045 19.3847 15.6054 19.3847 15.2977 19.6485L14.2428 20.6595C14.023 20.8793 13.9351 21.143 14.023 21.4507L14.067 21.6705C12.6164 22.0661 8.79223 23.2968 8.13289 25.5386L7.47355 27.7804C7.34169 28.176 7.56147 28.6155 8.00103 28.7474C8.08894 28.7474 8.13289 28.7913 8.22081 28.7913C8.57245 28.7913 8.83619 28.5716 8.96806 28.2639L9.6274 26.0221C9.97905 24.8793 12.5725 23.7364 14.5505 23.2089L15.3417 25.8902C15.3856 26.11 15.5615 26.2858 15.7373 26.3738C15.8252 26.4177 15.9571 26.4617 16.0889 26.4617C16.1768 26.4617 16.2648 26.4617 16.3966 26.4177L17.7593 25.8463L18.1109 26.8133L16.6164 32.9672C16.5285 33.3628 16.7922 33.8023 17.1878 33.8902H17.3637C17.7153 33.8902 18.023 33.6705 18.1109 33.3188L19.5175 27.3847H20.4845L21.9351 33.2749C22.023 33.6705 22.4626 33.9342 22.8582 33.8463C23.2538 33.7584 23.5175 33.3188 23.4296 32.9232L21.8911 26.6375L22.2428 25.6705L23.6054 26.1979C23.8252 26.2858 24.045 26.2858 24.2208 26.1979C24.3966 26.11 24.5725 25.9342 24.6164 25.7144L25.4076 23.0331C27.3417 23.6045 30.023 24.7474 30.3747 25.9342ZM15.6494 21.4507L15.8252 21.2749L18.4186 23.7804L16.5725 24.5276L15.6494 21.4507ZM20.5285 25.8463H19.4296L19.1659 25.143L19.9571 24.8353L20.7922 25.1869L20.5285 25.8463ZM23.3417 24.5276L21.4955 23.7804L24.0889 21.2749L24.2648 21.4507L23.3417 24.5276Z" fill="#7900FF"/>
<path d="M25.8024 28.1758C25.3629 28.1758 25.0112 28.5274 25.0112 28.967C25.0112 29.4066 25.3629 29.7582 25.8024 29.7582H28.1761C28.6156 29.7582 28.9673 29.4066 28.9673 28.967C28.9673 28.5274 28.6156 28.1758 28.1761 28.1758H25.8024Z" fill="#7900FF"/>
<path d="M17.1877 19.7799C17.7152 20.2194 18.8581 20.9667 19.957 20.9667C20.7482 20.9667 21.3636 20.7029 22.0229 20.2634C23.3855 19.3842 24.4405 18.1095 25.0559 16.659C25.5833 15.2963 25.891 13.8018 25.891 12.1755C25.891 10.5491 25.891 11.8238 25.891 11.7359C25.8471 10.7689 25.5394 9.84579 25.0119 8.96667C24.4844 8.1315 23.8251 7.47216 22.9899 6.94469C22.1548 6.41722 21.1877 6.15348 20.2207 6.10952C19.2537 6.06557 18.3306 6.28535 17.4954 6.72491C16.3965 7.29634 15.5614 8.08755 14.946 9.18645C14.4625 10.0216 14.1987 10.9447 14.1987 11.8678C14.1987 12.4832 14.1987 13.0985 14.2866 13.7139C14.4185 14.7689 14.5943 15.6919 14.902 16.5711C15.2537 17.67 16.0888 18.8128 17.1877 19.7799ZM16.2207 9.88974C16.6603 9.09854 17.3196 8.48315 18.1548 8.04359C18.7262 7.7359 19.3416 7.60403 20.0009 7.60403H20.1328C20.8361 7.64799 21.5394 7.82381 22.1548 8.21941C22.7702 8.61502 23.2976 9.09854 23.6932 9.71392C24.0888 10.3733 24.3086 11.0326 24.3526 11.7359V12.1315C24.3526 13.5821 24.1328 14.9007 23.6493 16.0875C23.2097 17.2304 22.3306 18.2414 21.2317 18.9447C20.5724 19.3403 20.2207 19.4722 19.6493 19.3842C19.1218 19.2963 18.8141 19.0766 18.2427 18.593C17.3196 17.8018 16.6603 16.9227 16.3086 15.9996C16.0449 15.2524 15.8691 14.4612 15.7811 13.4941C15.7372 12.9227 15.6932 12.3952 15.6932 11.8238C15.6493 11.1645 15.8251 10.5051 16.2207 9.88974Z" fill="#7900FF"/>
<path d="M1.84657 19.9999C1.84657 9.97795 9.97844 1.84608 20.0004 1.84608C24.9674 1.84608 29.5828 3.8241 33.0114 7.34058H30.0663C29.6268 7.34058 29.2751 7.69223 29.2751 8.13179C29.2751 8.57135 29.6268 8.923 30.0663 8.923H34.7257C35.1652 8.923 35.5169 8.57135 35.5169 8.13179V3.4285C35.5169 2.98894 35.1652 2.63729 34.7257 2.63729C34.2861 2.63729 33.9345 2.98894 33.9345 3.4285V6.15377C30.2861 2.41751 25.3191 0.307617 20.0004 0.307617C9.14327 0.307617 0.308105 9.14278 0.308105 19.9999C0.308105 22.7252 0.835578 25.3626 1.93448 27.8681C2.06635 28.1318 2.33008 28.3076 2.63778 28.3076C2.72569 28.3076 2.85756 28.3076 2.94547 28.2637C3.34107 28.0878 3.5169 27.6043 3.34107 27.2527C2.37404 24.967 1.84657 22.5054 1.84657 19.9999Z" fill="#7900FF"/>
<path d="M37.8471 11.692C37.6713 11.2964 37.1878 11.1206 36.8361 11.3404C36.4405 11.5162 36.2647 11.9997 36.4845 12.3514C37.6273 14.7689 38.1988 17.3184 38.1988 19.9997C38.1988 30.0217 30.0669 38.1536 20.0449 38.1536C14.8142 38.1536 9.93503 35.9558 6.50646 32.0876H9.53943C9.97899 32.0876 10.3306 31.736 10.3306 31.2964C10.3306 30.8569 9.97899 30.5052 9.53943 30.5052H4.83613C4.39657 30.5052 4.04492 30.8569 4.04492 31.2964V35.9558C4.04492 36.3953 4.39657 36.747 4.83613 36.747C5.27569 36.747 5.62734 36.3953 5.62734 35.9558V33.4063C9.3636 37.4063 14.5065 39.692 20.0449 39.692C30.9021 39.692 39.7372 30.8569 39.7372 19.9997C39.6933 17.0986 39.0779 14.2854 37.8471 11.692Z" fill="#7900FF"/>
</svg>
