<svg width="85" height="85" viewBox="0 0 85 85" fill="none" xmlns="http://www.w3.org/2000/svg">
<circle cx="42.5" cy="42.5" r="42.5" fill="#FBFBFB"/>
<path d="M42.5 3.1875C42.5 1.42709 43.9292 -0.0124486 45.6847 0.119407C55.4509 0.852962 64.7021 4.94319 71.8357 11.7483C79.7408 19.2894 84.4382 29.585 84.9528 40.498C85.4675 51.411 81.7598 62.103 74.5995 70.3545C67.4392 78.606 57.3762 83.7832 46.4996 84.8114C35.623 85.8395 24.7682 82.6396 16.1885 75.876C7.60883 69.1123 1.96335 59.3044 0.423992 48.4883C-1.11536 37.6722 1.56965 26.6787 7.92165 17.7899C13.6537 9.76867 21.9746 4.01739 31.4304 1.46683C33.1301 1.00837 34.8037 2.1546 35.1336 3.88383C35.4635 5.61305 34.3234 7.26848 32.63 7.7494C24.7832 9.97781 17.8873 14.809 13.1084 21.4964C7.7092 29.0519 5.42694 38.3963 6.73539 47.59C8.04385 56.7837 12.8425 65.1204 20.1352 70.8696C27.4279 76.6187 36.6545 79.3386 45.8997 78.4647C55.1448 77.5908 63.6983 73.1901 69.7846 66.1763C75.8708 59.1625 79.0223 50.0743 78.5849 40.7983C78.1475 31.5223 74.1546 22.771 67.4353 16.361C61.488 10.6875 53.8089 7.23408 45.6836 6.51547C43.93 6.36038 42.5 4.94791 42.5 3.1875Z" fill="#7900FF"/>
<path d="M39.1106 38.704C39.1106 40.432 38.652 41.936 37.7346 43.216H37.7666L30.5346 54H27.1746L32.4866 46.16C32.0173 46.2027 31.6546 46.224 31.3986 46.224C29.1373 46.224 27.2813 45.5307 25.8306 44.144C24.4013 42.736 23.6866 40.9227 23.6866 38.704C23.6866 36.4853 24.4013 34.6827 25.8306 33.296C27.2813 31.888 29.1373 31.184 31.3986 31.184C33.66 31.184 35.5053 31.888 36.9346 33.296C38.3853 34.6827 39.1106 36.4853 39.1106 38.704ZM27.9426 35.312C27.068 36.1653 26.6306 37.296 26.6306 38.704C26.6306 40.112 27.068 41.2533 27.9426 42.128C28.8386 42.9813 29.9906 43.408 31.3986 43.408C32.8066 43.408 33.948 42.9813 34.8226 42.128C35.7186 41.2533 36.1666 40.112 36.1666 38.704C36.1666 37.296 35.7293 36.1653 34.8546 35.312C33.98 34.4587 32.828 34.032 31.3986 34.032C29.9906 34.032 28.8386 34.4587 27.9426 35.312ZM41.0126 54.352C40.4366 54.352 39.946 54.1493 39.5406 53.744C39.1353 53.3387 38.9326 52.848 38.9326 52.272C38.9326 51.696 39.1353 51.2053 39.5406 50.8C39.946 50.3947 40.4366 50.192 41.0126 50.192C41.61 50.192 42.1006 50.3947 42.4846 50.8C42.89 51.2053 43.0926 51.696 43.0926 52.272C43.0926 52.848 42.89 53.3387 42.4846 53.744C42.1006 54.1493 41.61 54.352 41.0126 54.352ZM47.0979 31.6H61.0819V34.256L52.9219 54H49.8179L57.9139 34.416H47.0979V31.6Z" fill="#2E2D2F"/>
</svg>
