<svg width="85" height="85" viewBox="0 0 85 85" fill="none" xmlns="http://www.w3.org/2000/svg">
<circle cx="42.5" cy="42.5" r="42.5" fill="#FBFBFB"/>
<path d="M42.5 3.1875C42.5 1.42709 43.9293 -0.0124451 45.6847 0.119421C55.1108 0.827484 64.0668 4.6632 71.103 11.0657C78.9278 18.1857 83.8158 27.9681 84.8114 38.5004C85.807 49.0327 82.8386 59.5578 76.4866 68.0179C70.1346 76.478 60.8556 82.2649 50.4637 84.2472C40.0718 86.2296 29.3141 84.2649 20.2938 78.7372C11.2735 73.2095 4.63904 64.5163 1.68751 54.3571C-1.26401 44.1979 -0.320412 33.3031 4.33384 23.8026C8.51906 15.2595 15.4341 8.39619 23.9376 4.2679C25.5212 3.49907 27.3801 4.31137 28.0281 5.94815C28.6762 7.58494 27.8666 9.42464 26.2932 10.2144C19.2616 13.7439 13.5456 19.4897 10.0588 26.6072C6.10265 34.6826 5.30059 43.9432 7.80939 52.5785C10.3182 61.2139 15.9575 68.6031 23.6247 73.3016C31.292 78.0001 40.436 79.6701 49.2691 77.9851C58.1023 76.3001 65.9894 71.3813 71.3886 64.1902C76.7878 56.9991 79.3109 48.0528 78.4647 39.1003C77.6184 30.1479 73.4636 21.8328 66.8126 15.7808C60.9505 10.4467 53.5207 7.20863 45.6836 6.51548C43.93 6.36038 42.5 4.94791 42.5 3.1875Z" fill="#7900FF"/>
<path d="M37.6731 38.704C37.6731 40.432 37.2145 41.936 36.2971 43.216H36.3291L29.0971 54H25.7371L31.0491 46.16C30.5798 46.2027 30.2171 46.224 29.9611 46.224C27.6998 46.224 25.8438 45.5307 24.3931 44.144C22.9638 42.736 22.2491 40.9227 22.2491 38.704C22.2491 36.4853 22.9638 34.6827 24.3931 33.296C25.8438 31.888 27.6998 31.184 29.9611 31.184C32.2225 31.184 34.0678 31.888 35.4971 33.296C36.9478 34.6827 37.6731 36.4853 37.6731 38.704ZM26.5051 35.312C25.6305 36.1653 25.1931 37.296 25.1931 38.704C25.1931 40.112 25.6305 41.2533 26.5051 42.128C27.4011 42.9813 28.5531 43.408 29.9611 43.408C31.3691 43.408 32.5105 42.9813 33.3851 42.128C34.2811 41.2533 34.7291 40.112 34.7291 38.704C34.7291 37.296 34.2918 36.1653 33.4171 35.312C32.5425 34.4587 31.3905 34.032 29.9611 34.032C28.5531 34.032 27.4011 34.4587 26.5051 35.312ZM39.5751 54.352C38.9991 54.352 38.5085 54.1493 38.1031 53.744C37.6978 53.3387 37.4951 52.848 37.4951 52.272C37.4951 51.696 37.6978 51.2053 38.1031 50.8C38.5085 50.3947 38.9991 50.192 39.5751 50.192C40.1725 50.192 40.6631 50.3947 41.0471 50.8C41.4525 51.2053 41.6551 51.696 41.6551 52.272C41.6551 52.848 41.4525 53.3387 41.0471 53.744C40.6631 54.1493 40.1725 54.352 39.5751 54.352ZM62.9724 46.96V49.744H60.2524V54H57.2764V49.744H45.8524V46.96L53.8844 31.6H57.0844L49.0524 46.96H57.2764V40.624H60.2524V46.96H62.9724Z" fill="#2E2D2F"/>
</svg>
