<svg width="15" height="16" viewBox="0 0 15 16" fill="none" xmlns="http://www.w3.org/2000/svg">
<path d="M10.3661 0.5H4.63385C2.07683 0.5 0 2.57683 0 5.13385V10.8661C0 13.4232 2.07683 15.5 4.63385 15.5H10.3661C12.9232 15.5 15 13.4232 15 10.8661V5.13385C15 2.57683 12.9232 0.5 10.3661 0.5ZM13.3253 10.8721C13.3253 12.5048 11.9988 13.8373 10.3601 13.8373H4.62785C2.9952 13.8373 1.66266 12.5108 1.66266 10.8721V5.13986C1.66266 3.5072 2.9892 2.17467 4.62785 2.17467H10.3601C11.9928 2.17467 13.3253 3.5012 13.3253 5.13986V10.8721Z" fill="#2E2D2F"/>
<path d="M7.49697 4.16797C5.38413 4.16797 3.66144 5.89066 3.66144 8.0035C3.66144 10.1163 5.38413 11.839 7.49697 11.839C9.60982 11.839 11.3325 10.1163 11.3325 8.0035C11.3325 5.89066 9.60982 4.16797 7.49697 4.16797ZM7.49697 10.3324C6.21246 10.3324 5.16804 9.28802 5.16804 8.0035C5.16804 6.71899 6.21246 5.67457 7.49697 5.67457C8.78149 5.67457 9.8259 6.71899 9.8259 8.0035C9.8259 9.28802 8.78149 10.3324 7.49697 10.3324Z" fill="#2E2D2F"/>
<path d="M11.6246 4.58806C11.978 4.53077 12.218 4.19787 12.1607 3.8445C12.1034 3.49113 11.7705 3.2511 11.4172 3.30839C11.0638 3.36567 10.8238 3.69857 10.8811 4.05194C10.9383 4.40531 11.2713 4.64534 11.6246 4.58806Z" fill="#2E2D2F"/>
</svg>
