<svg width="30" height="30" viewBox="0 0 30 30" fill="none" xmlns="http://www.w3.org/2000/svg">
<path d="M18.1867 6.66675H11.82C8.98001 6.66675 6.67334 8.97341 6.67334 11.8134V18.1801C6.67334 21.0201 8.98001 23.3267 11.82 23.3267H18.1867C21.0267 23.3267 23.3333 21.0201 23.3333 18.1801V11.8134C23.3333 8.97341 21.0267 6.66675 18.1867 6.66675ZM21.4733 18.1867C21.4733 20.0001 20 21.4801 18.18 21.4801H11.8133C10 21.4801 8.52001 20.0067 8.52001 18.1867V11.8201C8.52001 10.0067 9.99334 8.52675 11.8133 8.52675H18.18C19.9933 8.52675 21.4733 10.0001 21.4733 11.8201V18.1867Z" fill="white"/>
<path d="M15 10.74C12.6533 10.74 10.74 12.6533 10.74 15C10.74 17.3467 12.6533 19.26 15 19.26C17.3467 19.26 19.26 17.3467 19.26 15C19.26 12.6533 17.3467 10.74 15 10.74ZM15 17.5867C13.5733 17.5867 12.4133 16.4267 12.4133 15C12.4133 13.5733 13.5733 12.4133 15 12.4133C16.4267 12.4133 17.5867 13.5733 17.5867 15C17.5867 16.4267 16.4267 17.5867 15 17.5867Z" fill="white"/>
<path d="M19.5844 11.2072C19.9769 11.1436 20.2435 10.7738 20.1799 10.3814C20.1162 9.98889 19.7465 9.7223 19.354 9.78592C18.9615 9.84955 18.6949 10.2193 18.7586 10.6118C18.8222 11.0042 19.1919 11.2708 19.5844 11.2072Z" fill="white"/>
</svg>
