<svg width="30" height="30" viewBox="0 0 30 30" fill="none" xmlns="http://www.w3.org/2000/svg">
<path d="M21.643 8.88748C19.5322 9.71025 10.4816 13.2385 7.98089 14.2001C6.30381 14.8161 7.28559 15.3936 7.28559 15.3936C7.28559 15.3936 8.71718 15.8555 9.94445 16.202C11.1715 16.5484 11.826 16.1635 11.826 16.1635L17.5935 12.5063C19.6387 11.1974 19.1479 12.2753 18.657 12.7373C17.5935 13.7384 15.8346 15.3166 14.362 16.587C13.7076 17.126 14.0347 17.5879 14.3212 17.8189C15.3846 18.6659 18.289 20.3983 18.4525 20.5137C19.3166 21.0895 21.0163 21.9182 21.2748 20.1673L22.2974 14.1233C22.6247 12.083 22.9519 10.1965 22.9927 9.65762C23.1156 8.34855 21.643 8.88748 21.643 8.88748Z" fill="white"/>
</svg>
