<svg width="30" height="30" viewBox="0 0 30 30" fill="none" xmlns="http://www.w3.org/2000/svg">
<path fill-rule="evenodd" clip-rule="evenodd" d="M13.3144 13.5201V12.8439C13.0797 12.8106 12.843 12.7934 12.6059 12.7922C9.70705 12.7922 7.34863 15.1511 7.34863 18.05C7.34863 19.8282 8.23736 21.4023 9.59308 22.3542C8.68531 21.3834 8.18064 20.1037 8.18137 18.7747C8.18137 15.9171 10.4727 13.5868 13.3144 13.5201Z" fill="white"/>
<path fill-rule="evenodd" clip-rule="evenodd" d="M13.4383 21.1756C14.7317 21.1756 15.7868 20.1467 15.8348 18.8645L15.8392 7.41784H17.9304C17.8857 7.17884 17.8631 6.93625 17.8628 6.69312H15.0069L15.0021 18.1401C14.9545 19.422 13.8989 20.4505 12.606 20.4505C12.2178 20.4506 11.8354 20.3561 11.4921 20.1749C11.7137 20.4842 12.0059 20.7363 12.3443 20.9103C12.6828 21.0843 13.0577 21.1752 13.4383 21.1756ZM21.8367 11.3031V10.667C21.0682 10.6677 20.3162 10.4441 19.6729 10.0237C20.2369 10.6731 20.9963 11.122 21.8371 11.3031" fill="white"/>
<path fill-rule="evenodd" clip-rule="evenodd" d="M17.8629 18.0496V12.2451C19.0206 13.0776 20.4109 13.5247 21.8368 13.5229V11.3031C20.9961 11.1218 20.2368 10.6727 19.673 10.0232C19.2214 9.72951 18.8341 9.34719 18.5345 8.89942C18.2351 8.45164 18.0295 7.94774 17.9304 7.41821H15.8393L15.8349 18.8648C15.7869 20.1467 14.7317 21.1756 13.4384 21.1756C13.0578 21.1752 12.6828 21.0842 12.3444 20.9102C12.006 20.7362 11.7139 20.4842 11.4922 20.1749C11.1043 19.9716 10.7794 19.6661 10.5525 19.2915C10.3257 18.917 10.2056 18.4875 10.2051 18.0496C10.2059 17.413 10.459 16.8028 10.9091 16.3527C11.3592 15.9026 11.9695 15.6494 12.606 15.6486C12.853 15.6486 13.0901 15.6892 13.3145 15.7599V13.5202C10.4728 13.5869 8.18146 15.9171 8.18146 18.7747C8.18146 20.1566 8.71835 21.4147 9.59318 22.3542C10.4751 22.9751 11.5275 23.3078 12.606 23.3069C15.5049 23.3069 17.8629 20.9484 17.8629 18.0496Z" fill="white"/>
</svg>
