<svg width="22" height="24" viewBox="0 0 22 24" fill="none" xmlns="http://www.w3.org/2000/svg">
<path d="M10.421 0.0034927C8.5608 0.0267456 4.56156 0.343285 2.32471 2.4683C0.660835 4.17551 0.0798909 6.69957 0.0118002 9.8207C-0.0447005 12.9306 -0.112791 18.7708 5.3236 20.361V22.7831C5.3236 22.7831 5.28955 23.7522 5.90816 23.9509C6.6702 24.2007 7.10409 23.4551 7.82846 22.654L9.17941 21.0721C12.899 21.3924 15.748 20.6543 16.0761 20.5448C16.8309 20.295 21.0822 19.7324 21.7769 13.8915C22.4897 7.85921 21.4299 4.05849 19.5169 2.33928H19.5053C18.928 1.78871 16.6078 0.037997 11.4242 0.0184946C11.4242 0.0184946 11.0396 -0.00850878 10.421 0.00274261V0.0034927ZM10.4847 1.69945C11.0128 1.6957 11.3337 1.71895 11.3337 1.71895C15.7212 1.73096 17.8153 3.09837 18.3094 3.55893C19.9203 4.98861 20.7505 8.41503 20.1427 13.4512C19.5654 18.3343 16.1174 18.6433 15.4792 18.8541C15.2076 18.9441 12.6984 19.5847 9.53725 19.3739C9.53725 19.3739 7.18305 22.3157 6.44709 23.0733C6.33047 23.2061 6.19429 23.2451 6.10736 23.2256C5.98277 23.1941 5.9451 23.0343 5.95235 22.8153L5.9748 18.7956C1.3642 17.4754 1.63583 12.494 1.68509 9.89196C1.74159 7.28989 2.21316 5.16113 3.61698 3.71945C5.50686 1.94998 8.9027 1.71145 10.4833 1.69945H10.4847ZM10.8324 4.30077C10.6738 4.29702 10.5419 4.43354 10.5419 4.59781C10.5419 4.76583 10.6738 4.8986 10.8324 4.8986C12.2848 4.87159 13.685 5.44166 14.7259 6.48879C15.7784 7.54717 16.2913 8.96935 16.3108 10.8288C16.3108 10.9931 16.439 11.1296 16.6013 11.1296V11.1176C16.7599 11.1176 16.8918 10.9848 16.8918 10.8206C16.9635 9.05111 16.3297 7.3319 15.141 6.05824C13.9943 4.89785 12.5412 4.30002 10.8324 4.30002V4.30077ZM7.01427 4.98861C6.81072 4.9571 6.59921 5.00061 6.42174 5.10937H6.40653C6.01392 5.3479 5.64811 5.64869 5.30114 6.05074C5.03675 6.36728 4.89332 6.68757 4.85565 6.99585C4.8332 7.17963 4.84841 7.3634 4.90129 7.53892L4.92012 7.55092C5.21784 8.45704 5.60682 9.32864 6.08201 10.1492C6.69338 11.3014 7.44744 12.368 8.32321 13.3214L8.34928 13.3604L8.39057 13.3919L8.41665 13.4234L8.44707 13.4504C9.37137 14.361 10.4014 15.1419 11.5184 15.7824C12.7933 16.501 13.5669 16.8408 14.0312 16.9818V16.9893C14.1674 17.0321 14.2913 17.0516 14.4159 17.0516C14.8121 17.0201 15.1859 16.8566 15.48 16.579C15.8574 16.2272 16.1551 15.8409 16.3782 15.4306V15.4231C16.6006 14.9896 16.5252 14.5793 16.2043 14.3018C15.5633 13.7197 14.865 13.2036 14.129 12.7588C13.635 12.4813 13.133 12.6493 12.9295 12.9306L12.4956 13.4969C12.2732 13.7782 11.869 13.7392 11.869 13.7392L11.8574 13.7467C8.8433 12.9493 8.03925 9.7892 8.03925 9.7892C8.03925 9.7892 8.00159 9.3594 8.28047 9.14037L8.82375 8.68731C9.08379 8.46829 9.26489 7.94922 8.986 7.43691C8.55935 6.67107 8.06171 5.95248 7.4996 5.28789C7.37863 5.13188 7.20551 5.02611 7.01282 4.98711L7.01427 4.98861ZM11.3337 5.87972C10.949 5.87972 10.949 6.48129 11.3373 6.48129C12.3029 6.49704 13.2236 6.91109 13.8951 7.62968C14.5064 8.32877 14.823 9.25888 14.7628 10.2003C14.7665 10.3645 14.8947 10.4973 15.0533 10.4973L15.0649 10.513C15.2235 10.513 15.3554 10.3765 15.3554 10.2123C15.3815 9.02036 15.0236 8.02048 14.3217 7.21938C13.6162 6.41828 12.6318 5.96898 11.375 5.87972C11.3598 5.87972 11.3489 5.87972 11.3337 5.87972ZM11.8096 7.49692C11.4134 7.48492 11.3982 8.09849 11.7908 8.11049C12.7455 8.1615 13.2091 8.66106 13.2699 9.68869C13.2735 9.85296 13.4018 9.98197 13.5568 9.98197H13.5684C13.7306 9.97447 13.8588 9.8297 13.8472 9.66168C13.7792 8.32202 13.0736 7.56743 11.8212 7.49767C11.8176 7.49767 11.8139 7.49767 11.8096 7.49767V7.49692Z" fill="#2E2D2F"/>
</svg>
