<svg width="24" height="25" viewBox="0 0 24 25" fill="none" xmlns="http://www.w3.org/2000/svg">
<path d="M0.434326 24.0313C0.762181 23.0477 1.07103 22.1259 1.37988 21.2041C1.68873 20.2918 1.96432 19.3653 2.31593 18.4672C2.49649 18.0111 2.43947 17.669 2.2114 17.2413C0.966497 14.9321 0.595878 12.4566 1.02827 9.88123C1.39413 7.70028 2.32068 5.77116 3.81741 4.13189C6.28345 1.43778 9.36244 0.145362 13.0021 0.29741C15.6677 0.406695 18.0245 1.38076 20.0344 3.14357C21.9065 4.78285 23.1276 6.82125 23.693 9.24453C24.1492 11.1974 24.0969 13.1408 23.5362 15.0651C22.8235 17.5027 21.4598 19.5126 19.4309 21.0426C16.6133 23.1712 13.4535 23.8317 10.0086 23.1617C8.97281 22.9622 7.9845 22.5916 7.0532 22.0879C6.90115 22.0071 6.77286 21.9881 6.60655 22.0451C4.83899 22.6153 3.06667 23.1807 1.2991 23.7462C1.03302 23.8317 0.762181 23.922 0.434326 24.0313ZM3.44204 21.0521C3.53707 21.0283 3.57983 21.0188 3.6226 21.0045C4.7297 20.6529 5.83681 20.2966 6.94866 19.9545C7.0532 19.9212 7.19574 19.9497 7.29552 19.9972C7.77543 20.2348 8.23633 20.5199 8.73048 20.729C10.7641 21.589 12.8596 21.7268 14.9787 21.1376C17.5065 20.4296 19.4452 18.9234 20.7708 16.6474C21.9065 14.6993 22.2961 12.5943 21.9445 10.3801C21.4978 7.56249 20.0534 5.34828 17.6633 3.77552C15.5917 2.41659 13.311 1.95569 10.8782 2.34057C8.78275 2.67317 6.99143 3.62823 5.5137 5.15822C4.24505 6.46964 3.39452 8.01863 3.02391 9.80045C2.49649 12.352 2.88611 14.7658 4.30207 16.9657C4.58716 17.4076 4.57765 17.745 4.4066 18.1964C4.05974 19.1229 3.76989 20.0685 3.44204 21.0521Z" fill="#2E2D2F"/>
<path d="M18.4188 15.1885C18.4046 16.1056 17.9722 16.804 17.0979 17.2412C16.2379 17.6688 15.3636 17.7781 14.4656 17.4265C13.6578 17.1081 12.8405 16.7993 12.0613 16.4144C11.035 15.906 10.1939 15.1458 9.42419 14.3047C8.57367 13.3734 7.85144 12.3376 7.2575 11.2305C6.83461 10.4465 6.57803 9.61499 6.66831 8.7027C6.76334 7.73339 7.21474 6.95889 7.97498 6.37445C8.12703 6.26041 8.3551 6.20815 8.54991 6.18914C8.80174 6.17013 9.05358 6.20815 9.30541 6.22715C9.51447 6.24616 9.62851 6.39346 9.69978 6.56451C9.88509 7.02066 10.0514 7.4768 10.2272 7.9377C10.346 8.24655 10.4363 8.56965 10.5788 8.869C10.7546 9.23962 10.6453 9.54847 10.4173 9.83356C10.2224 10.0759 10.0181 10.3087 9.79481 10.5178C9.6095 10.6936 9.57624 10.8741 9.69978 11.088C10.2462 12.062 10.9114 12.9363 11.7905 13.6443C12.3701 14.1099 13.0116 14.4568 13.6768 14.7799C13.8716 14.8749 14.0617 14.8607 14.2137 14.6849C14.5416 14.3095 14.8742 13.9389 15.1973 13.5588C15.4064 13.3164 15.5109 13.2689 15.7912 13.4115C16.6037 13.8201 17.4068 14.243 18.2145 14.6659C18.4046 14.7704 18.4521 14.9414 18.4188 15.1885Z" fill="#2E2D2F"/>
</svg>
